M48
; DRILL file {KiCad 9.0.3} date 2026-02-07T01:57:22+0530
; FORMAT={-:-/ absolute / metric / decimal}
; #@! TF.CreationDate,2026-02-07T01:57:22+05:30
; #@! TF.GenerationSoftware,Kicad,Pcbnew,9.0.3
; #@! TF.FileFunction,Plated,1,2,PTH
FMAT,2
METRIC
; #@! TA.AperFunction,Plated,PTH,ViaDrill
T1C0.300
; #@! TA.AperFunction,Plated,PTH,ViaDrill
T2C0.600
; #@! TA.AperFunction,Plated,PTH,ComponentDrill
T3C0.800
; #@! TA.AperFunction,Plated,PTH,ComponentDrill
T4C1.000
%
G90
G05
T1
X134.4Y-110.8
X134.4Y-110.8
X134.4Y-110.8
X134.6Y-107.2
X134.6Y-107.2
X134.6Y-107.2
X134.6Y-107.2
X134.6Y-107.2
X134.6Y-107.2
X134.6Y-107.2
X134.6Y-107.2
X134.6Y-107.2
X134.6Y-107.2
X134.6Y-107.2
X134.6Y-107.2
X134.6Y-107.2
X134.6Y-107.2
X134.6Y-107.2
X134.6Y-107.2
X134.6Y-107.2
X134.6Y-107.2
X134.6Y-107.2
X134.6Y-107.2
X134.6Y-107.2
X134.6Y-107.2
X134.6Y-107.2
X134.6Y-107.2
X134.6Y-107.2
X134.6Y-107.2
X134.6Y-107.2
X134.6Y-107.2
X134.6Y-107.2
X134.6Y-107.2
X134.6Y-107.2
X134.6Y-107.2
X134.6Y-107.2
X134.6Y-107.2
X134.6Y-107.2
X134.6Y-107.2
X134.6Y-107.2
X136.0Y-107.4
X138.6Y-110.8
X140.2Y-119.2
T2
X130.2Y-103.2
X130.2Y-104.4
X130.2Y-105.4
X130.2Y-106.4
X130.2Y-107.4
X130.2Y-108.4
X130.2Y-109.4
X130.2Y-110.6
X131.0Y-104.0
X131.0Y-110.6
X131.2Y-105.4
X131.2Y-107.0
X131.2Y-109.6
X131.6Y-108.6
X131.8Y-103.4
X131.8Y-104.8
X131.8Y-106.0
X131.8Y-106.8
X131.8Y-110.6
X132.0Y-107.6
X132.4Y-109.6
X132.6Y-108.8
X132.8Y-103.4
X132.8Y-110.6
X133.0Y-104.8
X133.0Y-106.2
X133.0Y-107.2
X133.4Y-108.4
X133.4Y-109.4
X133.4Y-110.6
X134.2Y-106.4
X134.4Y-103.4
X134.4Y-104.8
X134.4Y-105.6
X134.4Y-107.4
X134.4Y-107.4
X134.4Y-107.4
X134.4Y-107.4
X134.4Y-107.4
X134.4Y-107.4
X134.4Y-107.4
X134.4Y-107.4
X134.4Y-107.4
X134.4Y-108.6
X134.4Y-109.4
X134.4Y-109.4
X134.4Y-110.6
X134.4Y-110.6
X134.6Y-107.2
X134.6Y-107.2
X134.6Y-107.2
X134.6Y-107.2
X134.6Y-107.2
X134.6Y-107.2
X134.6Y-107.2
X134.6Y-107.2
X134.6Y-107.2
X134.6Y-107.2
X134.6Y-107.2
X134.6Y-107.2
X134.6Y-107.2
X134.6Y-107.2
X134.6Y-107.2
X134.6Y-107.2
X134.6Y-107.2
X134.6Y-107.2
X134.6Y-107.2
X134.6Y-107.2
X134.6Y-107.2
X134.6Y-107.2
X134.6Y-107.2
X134.6Y-107.2
X134.6Y-107.2
X134.6Y-107.2
X134.6Y-107.2
X134.6Y-107.2
X134.6Y-107.2
X134.6Y-107.2
X134.6Y-107.2
X134.6Y-107.2
X134.6Y-107.2
X134.6Y-107.2
X134.6Y-107.2
X134.6Y-107.2
X134.6Y-107.2
X134.6Y-107.2
X134.6Y-107.2
X134.6Y-107.2
X134.6Y-107.2
X134.6Y-107.2
X134.6Y-107.2
X134.6Y-107.2
X134.6Y-107.2
X134.6Y-107.2
X134.6Y-107.2
X134.6Y-107.2
X134.6Y-107.2
X134.6Y-107.2
X134.6Y-107.2
X134.6Y-107.2
X134.6Y-107.2
X134.6Y-107.2
X134.6Y-107.2
X134.6Y-107.2
X134.6Y-107.2
X134.6Y-107.2
X134.6Y-107.2
X134.6Y-107.2
X134.6Y-107.2
X134.6Y-107.2
X134.6Y-107.2
X134.6Y-107.2
X134.6Y-107.2
X134.6Y-107.2
X134.6Y-107.2
X134.6Y-107.2
X134.6Y-107.2
X134.6Y-107.2
X134.6Y-107.2
X134.6Y-107.2
X134.6Y-107.2
X134.6Y-107.2
X134.6Y-107.2
X134.6Y-107.2
X134.6Y-107.2
X134.6Y-107.2
X135.2Y-105.6
X135.2Y-108.6
X135.2Y-109.4
X135.2Y-110.6
X135.4Y-104.8
X135.6Y-106.8
X135.6Y-107.4
X135.8Y-108.4
X136.0Y-103.4
X136.0Y-109.4
X136.2Y-110.6
X136.4Y-104.8
X136.4Y-105.6
X136.6Y-106.4
X136.6Y-107.4
X136.6Y-107.4
X136.6Y-108.4
X136.8Y-104.0
X136.8Y-104.0
X136.8Y-104.0
X137.0Y-109.4
X137.0Y-110.6
X137.2Y-105.4
X137.2Y-107.4
X137.8Y-103.6
X137.8Y-103.6
X137.8Y-104.4
X137.9Y-106.7
X138.0Y-110.6
X138.2Y-105.4
X138.2Y-108.2
X138.2Y-109.4
X138.4Y-104.4
X138.4Y-107.2
X138.6Y-111.0
X138.7Y-105.9
X138.8Y-103.2
X139.2Y-108.2
X139.2Y-110.6
X139.4Y-104.2
X139.4Y-105.45
X139.4Y-105.6
X139.4Y-106.6
X139.4Y-107.6
X139.4Y-109.2
X139.6Y-109.8
T3
X121.85Y-108.4
X125.35Y-108.4
X141.0Y-124.6
X143.54Y-124.6
X146.08Y-124.6
X159.45Y-117.6
X162.95Y-117.6
T4
X118.4Y-100.8
X118.4Y-127.6
X165.6Y-100.8
X165.6Y-127.6
M30
