%TF.GenerationSoftware,KiCad,Pcbnew,9.0.3*%
%TF.CreationDate,2026-02-07T01:57:28+05:30*%
%TF.ProjectId,dc dc boost converter,64632064-6320-4626-9f6f-737420636f6e,rev?*%
%TF.SameCoordinates,Original*%
%TF.FileFunction,Paste,Top*%
%TF.FilePolarity,Positive*%
%FSLAX46Y46*%
G04 Gerber Fmt 4.6, Leading zero omitted, Abs format (unit mm)*
G04 Created by KiCad (PCBNEW 9.0.3) date 2026-02-07 01:57:28*
%MOMM*%
%LPD*%
G01*
G04 APERTURE LIST*
G04 Aperture macros list*
%AMRoundRect*
0 Rectangle with rounded corners*
0 $1 Rounding radius*
0 $2 $3 $4 $5 $6 $7 $8 $9 X,Y pos of 4 corners*
0 Add a 4 corners polygon primitive as box body*
4,1,4,$2,$3,$4,$5,$6,$7,$8,$9,$2,$3,0*
0 Add four circle primitives for the rounded corners*
1,1,$1+$1,$2,$3*
1,1,$1+$1,$4,$5*
1,1,$1+$1,$6,$7*
1,1,$1+$1,$8,$9*
0 Add four rect primitives between the rounded corners*
20,1,$1+$1,$2,$3,$4,$5,0*
20,1,$1+$1,$4,$5,$6,$7,0*
20,1,$1+$1,$6,$7,$8,$9,0*
20,1,$1+$1,$8,$9,$2,$3,0*%
G04 Aperture macros list end*
%ADD10C,0.010000*%
%ADD11RoundRect,0.250000X-0.250000X-0.475000X0.250000X-0.475000X0.250000X0.475000X-0.250000X0.475000X0*%
%ADD12R,5.400000X2.900000*%
%ADD13RoundRect,0.250000X-1.000000X-0.650000X1.000000X-0.650000X1.000000X0.650000X-1.000000X0.650000X0*%
%ADD14RoundRect,0.250000X-0.312500X-0.625000X0.312500X-0.625000X0.312500X0.625000X-0.312500X0.625000X0*%
%ADD15R,1.050000X3.210000*%
G04 APERTURE END LIST*
D10*
%TO.C,VR1*%
X131090000Y-104650000D02*
X129670000Y-104650000D01*
X129670000Y-103390000D01*
X131090000Y-103390000D01*
X131090000Y-104650000D01*
G36*
X131090000Y-104650000D02*
G01*
X129670000Y-104650000D01*
X129670000Y-103390000D01*
X131090000Y-103390000D01*
X131090000Y-104650000D01*
G37*
X131090000Y-106770000D02*
X129670000Y-106770000D01*
X129670000Y-105510000D01*
X131090000Y-105510000D01*
X131090000Y-106770000D01*
G36*
X131090000Y-106770000D02*
G01*
X129670000Y-106770000D01*
X129670000Y-105510000D01*
X131090000Y-105510000D01*
X131090000Y-106770000D01*
G37*
X131090000Y-108890000D02*
X129670000Y-108890000D01*
X129670000Y-107630000D01*
X131090000Y-107630000D01*
X131090000Y-108890000D01*
G36*
X131090000Y-108890000D02*
G01*
X129670000Y-108890000D01*
X129670000Y-107630000D01*
X131090000Y-107630000D01*
X131090000Y-108890000D01*
G37*
X131090000Y-111010000D02*
X129670000Y-111010000D01*
X129670000Y-109750000D01*
X131090000Y-109750000D01*
X131090000Y-111010000D01*
G36*
X131090000Y-111010000D02*
G01*
X129670000Y-111010000D01*
X129670000Y-109750000D01*
X131090000Y-109750000D01*
X131090000Y-111010000D01*
G37*
X133200000Y-104650000D02*
X131780000Y-104650000D01*
X131780000Y-103390000D01*
X133200000Y-103390000D01*
X133200000Y-104650000D01*
G36*
X133200000Y-104650000D02*
G01*
X131780000Y-104650000D01*
X131780000Y-103390000D01*
X133200000Y-103390000D01*
X133200000Y-104650000D01*
G37*
X133200000Y-106770000D02*
X131780000Y-106770000D01*
X131780000Y-105510000D01*
X133200000Y-105510000D01*
X133200000Y-106770000D01*
G36*
X133200000Y-106770000D02*
G01*
X131780000Y-106770000D01*
X131780000Y-105510000D01*
X133200000Y-105510000D01*
X133200000Y-106770000D01*
G37*
X133200000Y-108890000D02*
X131780000Y-108890000D01*
X131780000Y-107630000D01*
X133200000Y-107630000D01*
X133200000Y-108890000D01*
G36*
X133200000Y-108890000D02*
G01*
X131780000Y-108890000D01*
X131780000Y-107630000D01*
X133200000Y-107630000D01*
X133200000Y-108890000D01*
G37*
X133200000Y-111010000D02*
X131780000Y-111010000D01*
X131780000Y-109750000D01*
X133200000Y-109750000D01*
X133200000Y-111010000D01*
G36*
X133200000Y-111010000D02*
G01*
X131780000Y-111010000D01*
X131780000Y-109750000D01*
X133200000Y-109750000D01*
X133200000Y-111010000D01*
G37*
X135310000Y-104650000D02*
X133890000Y-104650000D01*
X133890000Y-103390000D01*
X135310000Y-103390000D01*
X135310000Y-104650000D01*
G36*
X135310000Y-104650000D02*
G01*
X133890000Y-104650000D01*
X133890000Y-103390000D01*
X135310000Y-103390000D01*
X135310000Y-104650000D01*
G37*
X135310000Y-106770000D02*
X133890000Y-106770000D01*
X133890000Y-105510000D01*
X135310000Y-105510000D01*
X135310000Y-106770000D01*
G36*
X135310000Y-106770000D02*
G01*
X133890000Y-106770000D01*
X133890000Y-105510000D01*
X135310000Y-105510000D01*
X135310000Y-106770000D01*
G37*
X135310000Y-108890000D02*
X133890000Y-108890000D01*
X133890000Y-107630000D01*
X135310000Y-107630000D01*
X135310000Y-108890000D01*
G36*
X135310000Y-108890000D02*
G01*
X133890000Y-108890000D01*
X133890000Y-107630000D01*
X135310000Y-107630000D01*
X135310000Y-108890000D01*
G37*
X135310000Y-111010000D02*
X133890000Y-111010000D01*
X133890000Y-109750000D01*
X135310000Y-109750000D01*
X135310000Y-111010000D01*
G36*
X135310000Y-111010000D02*
G01*
X133890000Y-111010000D01*
X133890000Y-109750000D01*
X135310000Y-109750000D01*
X135310000Y-111010000D01*
G37*
X137420000Y-104650000D02*
X136000000Y-104650000D01*
X136000000Y-103390000D01*
X137420000Y-103390000D01*
X137420000Y-104650000D01*
G36*
X137420000Y-104650000D02*
G01*
X136000000Y-104650000D01*
X136000000Y-103390000D01*
X137420000Y-103390000D01*
X137420000Y-104650000D01*
G37*
X137420000Y-106770000D02*
X136000000Y-106770000D01*
X136000000Y-105510000D01*
X137420000Y-105510000D01*
X137420000Y-106770000D01*
G36*
X137420000Y-106770000D02*
G01*
X136000000Y-106770000D01*
X136000000Y-105510000D01*
X137420000Y-105510000D01*
X137420000Y-106770000D01*
G37*
X137420000Y-108890000D02*
X136000000Y-108890000D01*
X136000000Y-107630000D01*
X137420000Y-107630000D01*
X137420000Y-108890000D01*
G36*
X137420000Y-108890000D02*
G01*
X136000000Y-108890000D01*
X136000000Y-107630000D01*
X137420000Y-107630000D01*
X137420000Y-108890000D01*
G37*
X137420000Y-111010000D02*
X136000000Y-111010000D01*
X136000000Y-109750000D01*
X137420000Y-109750000D01*
X137420000Y-111010000D01*
G36*
X137420000Y-111010000D02*
G01*
X136000000Y-111010000D01*
X136000000Y-109750000D01*
X137420000Y-109750000D01*
X137420000Y-111010000D01*
G37*
X139530000Y-104650000D02*
X138110000Y-104650000D01*
X138110000Y-103390000D01*
X139530000Y-103390000D01*
X139530000Y-104650000D01*
G36*
X139530000Y-104650000D02*
G01*
X138110000Y-104650000D01*
X138110000Y-103390000D01*
X139530000Y-103390000D01*
X139530000Y-104650000D01*
G37*
X139530000Y-106770000D02*
X138110000Y-106770000D01*
X138110000Y-105510000D01*
X139530000Y-105510000D01*
X139530000Y-106770000D01*
G36*
X139530000Y-106770000D02*
G01*
X138110000Y-106770000D01*
X138110000Y-105510000D01*
X139530000Y-105510000D01*
X139530000Y-106770000D01*
G37*
X139530000Y-108890000D02*
X138110000Y-108890000D01*
X138110000Y-107630000D01*
X139530000Y-107630000D01*
X139530000Y-108890000D01*
G36*
X139530000Y-108890000D02*
G01*
X138110000Y-108890000D01*
X138110000Y-107630000D01*
X139530000Y-107630000D01*
X139530000Y-108890000D01*
G37*
X139530000Y-111010000D02*
X138110000Y-111010000D01*
X138110000Y-109750000D01*
X139530000Y-109750000D01*
X139530000Y-111010000D01*
G36*
X139530000Y-111010000D02*
G01*
X138110000Y-111010000D01*
X138110000Y-109750000D01*
X139530000Y-109750000D01*
X139530000Y-111010000D01*
G37*
%TD*%
D11*
%TO.C,C3*%
X158850000Y-106000000D03*
X160750000Y-106000000D03*
%TD*%
D12*
%TO.C,L1*%
X149400000Y-115350000D03*
X149400000Y-105450000D03*
%TD*%
D11*
%TO.C,C2*%
X122650000Y-116200000D03*
X124550000Y-116200000D03*
%TD*%
D13*
%TO.C,D1*%
X123000000Y-124800000D03*
X127000000Y-124800000D03*
%TD*%
D14*
%TO.C,R1*%
X131737500Y-124600000D03*
X134662500Y-124600000D03*
%TD*%
D15*
%TO.C,VR1*%
X131200000Y-116830000D03*
X132900000Y-116830000D03*
X134600000Y-116830000D03*
X136300000Y-116830000D03*
X138000000Y-116830000D03*
%TD*%
M02*
