%TF.GenerationSoftware,KiCad,Pcbnew,9.0.3*%
%TF.CreationDate,2026-02-07T01:57:28+05:30*%
%TF.ProjectId,dc dc boost converter,64632064-6320-4626-9f6f-737420636f6e,rev?*%
%TF.SameCoordinates,Original*%
%TF.FileFunction,Copper,L1,Top*%
%TF.FilePolarity,Positive*%
%FSLAX46Y46*%
G04 Gerber Fmt 4.6, Leading zero omitted, Abs format (unit mm)*
G04 Created by KiCad (PCBNEW 9.0.3) date 2026-02-07 01:57:28*
%MOMM*%
%LPD*%
G01*
G04 APERTURE LIST*
G04 Aperture macros list*
%AMRoundRect*
0 Rectangle with rounded corners*
0 $1 Rounding radius*
0 $2 $3 $4 $5 $6 $7 $8 $9 X,Y pos of 4 corners*
0 Add a 4 corners polygon primitive as box body*
4,1,4,$2,$3,$4,$5,$6,$7,$8,$9,$2,$3,0*
0 Add four circle primitives for the rounded corners*
1,1,$1+$1,$2,$3*
1,1,$1+$1,$4,$5*
1,1,$1+$1,$6,$7*
1,1,$1+$1,$8,$9*
0 Add four rect primitives between the rounded corners*
20,1,$1+$1,$2,$3,$4,$5,0*
20,1,$1+$1,$4,$5,$6,$7,0*
20,1,$1+$1,$6,$7,$8,$9,0*
20,1,$1+$1,$8,$9,$2,$3,0*%
G04 Aperture macros list end*
%TA.AperFunction,SMDPad,CuDef*%
%ADD10RoundRect,0.250000X-0.250000X-0.475000X0.250000X-0.475000X0.250000X0.475000X-0.250000X0.475000X0*%
%TD*%
%TA.AperFunction,SMDPad,CuDef*%
%ADD11R,5.400000X2.900000*%
%TD*%
%TA.AperFunction,ComponentPad*%
%ADD12C,1.600000*%
%TD*%
%TA.AperFunction,ComponentPad*%
%ADD13C,1.440000*%
%TD*%
%TA.AperFunction,ComponentPad*%
%ADD14R,1.700000X1.700000*%
%TD*%
%TA.AperFunction,SMDPad,CuDef*%
%ADD15RoundRect,0.250000X-1.000000X-0.650000X1.000000X-0.650000X1.000000X0.650000X-1.000000X0.650000X0*%
%TD*%
%TA.AperFunction,SMDPad,CuDef*%
%ADD16RoundRect,0.250000X-0.312500X-0.625000X0.312500X-0.625000X0.312500X0.625000X-0.312500X0.625000X0*%
%TD*%
%TA.AperFunction,SMDPad,CuDef*%
%ADD17R,1.050000X3.210000*%
%TD*%
%TA.AperFunction,SMDPad,CuDef*%
%ADD18R,10.530000X8.460000*%
%TD*%
%TA.AperFunction,ViaPad*%
%ADD19C,0.900000*%
%TD*%
%TA.AperFunction,ViaPad*%
%ADD20C,0.600000*%
%TD*%
%TA.AperFunction,Conductor*%
%ADD21C,1.000000*%
%TD*%
G04 APERTURE END LIST*
D10*
%TO.P,C3,1*%
%TO.N,Net-(D1-K)*%
X158850000Y-106000000D03*
%TO.P,C3,2*%
%TO.N,GND*%
X160750000Y-106000000D03*
%TD*%
D11*
%TO.P,L1,1,1*%
%TO.N,Net-(J1-Pin_1)*%
X149400000Y-115350000D03*
%TO.P,L1,2,2*%
%TO.N,Net-(D1-A)*%
X149400000Y-105450000D03*
%TD*%
D12*
%TO.P,C1,1*%
%TO.N,Net-(J1-Pin_1)*%
X121850000Y-108400000D03*
%TO.P,C1,2*%
%TO.N,GND*%
X125350000Y-108400000D03*
%TD*%
D13*
%TO.P,RV1,1,1*%
%TO.N,Net-(VR1-FB)*%
X146080000Y-124600000D03*
%TO.P,RV1,2,2*%
%TO.N,Net-(D1-K)*%
X143540000Y-124600000D03*
%TO.P,RV1,3,3*%
X141000000Y-124600000D03*
%TD*%
D14*
%TO.P,J4,1,Pin_1*%
%TO.N,Net-(D1-K)*%
X165600000Y-100800000D03*
%TD*%
%TO.P,J3,1,Pin_1*%
%TO.N,GND*%
X165600000Y-127600000D03*
%TD*%
%TO.P,J2,1,Pin_1*%
%TO.N,GND*%
X118400000Y-127600000D03*
%TD*%
%TO.P,J1,1,Pin_1*%
%TO.N,Net-(J1-Pin_1)*%
X118400000Y-100800000D03*
%TD*%
D10*
%TO.P,C2,1*%
%TO.N,Net-(J1-Pin_1)*%
X122650000Y-116200000D03*
%TO.P,C2,2*%
%TO.N,GND*%
X124550000Y-116200000D03*
%TD*%
D12*
%TO.P,C4,1*%
%TO.N,Net-(D1-K)*%
X159450000Y-117600000D03*
%TO.P,C4,2*%
%TO.N,GND*%
X162950000Y-117600000D03*
%TD*%
D15*
%TO.P,D1,1,K*%
%TO.N,Net-(D1-K)*%
X123000000Y-124800000D03*
%TO.P,D1,2,A*%
%TO.N,Net-(D1-A)*%
X127000000Y-124800000D03*
%TD*%
D16*
%TO.P,R1,1*%
%TO.N,Net-(VR1-FB)*%
X131737500Y-124600000D03*
%TO.P,R1,2*%
%TO.N,GND*%
X134662500Y-124600000D03*
%TD*%
D17*
%TO.P,VR1,1,GND*%
%TO.N,GND*%
X131200000Y-116830000D03*
%TO.P,VR1,2,EN*%
%TO.N,unconnected-(VR1-EN-Pad2)*%
X132900000Y-116830000D03*
%TO.P,VR1,3,SW*%
%TO.N,Net-(D1-A)*%
X134600000Y-116830000D03*
%TO.P,VR1,4,VIN*%
%TO.N,Net-(J1-Pin_1)*%
X136300000Y-116830000D03*
%TO.P,VR1,5,FB*%
%TO.N,Net-(VR1-FB)*%
X138000000Y-116830000D03*
D18*
%TO.P,VR1,6,SW*%
%TO.N,Net-(D1-A)*%
X134600000Y-107200000D03*
%TD*%
D19*
%TO.N,Net-(D1-A)*%
X134400000Y-109400000D03*
D20*
X134600000Y-107200000D03*
D19*
X134600000Y-107200000D03*
X134600000Y-107200000D03*
X132600000Y-108800000D03*
X134600000Y-107200000D03*
X136600000Y-108400000D03*
D20*
X134600000Y-107200000D03*
D19*
X134600000Y-107200000D03*
X134600000Y-107200000D03*
X134400000Y-107400000D03*
X134400000Y-107400000D03*
X130200000Y-110600000D03*
X134600000Y-107200000D03*
D20*
X134600000Y-107200000D03*
D19*
X134600000Y-107200000D03*
X134600000Y-107200000D03*
X131800000Y-104800000D03*
X139200000Y-110600000D03*
X135200000Y-105600000D03*
X134600000Y-107200000D03*
X139400000Y-105600000D03*
X134600000Y-107200000D03*
X137900000Y-106700000D03*
X134600000Y-107200000D03*
D20*
X134400000Y-110800000D03*
D19*
X138800000Y-103200000D03*
X134600000Y-107200000D03*
X131800000Y-106000000D03*
X134600000Y-107200000D03*
X130200000Y-103200000D03*
X134400000Y-107400000D03*
X134600000Y-107200000D03*
X131800000Y-103400000D03*
D20*
X134600000Y-107200000D03*
D19*
X135800000Y-108400000D03*
X134600000Y-107200000D03*
X138400000Y-107200000D03*
X135600000Y-107400000D03*
X134600000Y-107200000D03*
D20*
X134600000Y-107200000D03*
D19*
X134600000Y-107200000D03*
X134600000Y-107200000D03*
X138600000Y-111000000D03*
X134600000Y-107200000D03*
X134600000Y-107200000D03*
X134600000Y-107200000D03*
X134600000Y-107200000D03*
X139400000Y-104200000D03*
X132400000Y-109600000D03*
X133000000Y-107200000D03*
X134600000Y-107200000D03*
X130200000Y-104400000D03*
D20*
X134600000Y-107200000D03*
D19*
X131000000Y-110600000D03*
D20*
X134600000Y-107200000D03*
X134600000Y-107200000D03*
D19*
X135200000Y-108600000D03*
X134600000Y-107200000D03*
X134400000Y-107400000D03*
D20*
X134600000Y-107200000D03*
D19*
X134400000Y-107400000D03*
X138200000Y-105400000D03*
X130200000Y-106400000D03*
D20*
X134600000Y-107200000D03*
D19*
X139400000Y-105450000D03*
X138700000Y-105900000D03*
X139400000Y-109200000D03*
X131200000Y-109600000D03*
X134600000Y-107200000D03*
X134400000Y-108600000D03*
X139600000Y-109800000D03*
X138400000Y-104400000D03*
X134600000Y-107200000D03*
X134600000Y-107200000D03*
X136600000Y-106400000D03*
X135200000Y-109400000D03*
X137200000Y-107400000D03*
X134600000Y-107200000D03*
X131200000Y-105400000D03*
X130200000Y-109400000D03*
X136200000Y-110600000D03*
D20*
X134600000Y-107200000D03*
X134600000Y-107200000D03*
D19*
X134600000Y-107200000D03*
X134600000Y-107200000D03*
X132000000Y-107600000D03*
D20*
X134600000Y-107200000D03*
D19*
X134600000Y-107200000D03*
D20*
X134600000Y-107200000D03*
D19*
X134400000Y-104800000D03*
X134400000Y-110600000D03*
X134200000Y-106400000D03*
D20*
X134600000Y-107200000D03*
D19*
X134600000Y-107200000D03*
X134600000Y-107200000D03*
X134400000Y-110600000D03*
D20*
X134600000Y-107200000D03*
D19*
X134600000Y-107200000D03*
X136800000Y-104000000D03*
X134400000Y-109400000D03*
X137000000Y-109400000D03*
X131800000Y-110600000D03*
D20*
X134600000Y-107200000D03*
D19*
X134600000Y-107200000D03*
X136600000Y-107400000D03*
X136400000Y-105600000D03*
D20*
X134600000Y-107200000D03*
D19*
X134600000Y-107200000D03*
X134600000Y-107200000D03*
X134600000Y-107200000D03*
D20*
X134600000Y-107200000D03*
X134600000Y-107200000D03*
D19*
X137800000Y-103600000D03*
X134600000Y-107200000D03*
X134400000Y-107400000D03*
X136400000Y-104800000D03*
X133000000Y-104800000D03*
X133000000Y-106200000D03*
D20*
X134600000Y-107200000D03*
D19*
X136800000Y-104000000D03*
X134600000Y-107200000D03*
X136000000Y-109400000D03*
X134600000Y-107200000D03*
X138200000Y-108200000D03*
X139200000Y-108200000D03*
D20*
X134600000Y-107200000D03*
D19*
X134600000Y-107200000D03*
X135200000Y-110600000D03*
X134600000Y-107200000D03*
X130200000Y-107400000D03*
X138000000Y-110600000D03*
X139400000Y-107600000D03*
D20*
X136000000Y-107400000D03*
D19*
X136800000Y-104000000D03*
D20*
X138600000Y-110800000D03*
D19*
X134600000Y-107200000D03*
X133400000Y-110600000D03*
D20*
X134600000Y-107200000D03*
X134600000Y-107200000D03*
D19*
X137000000Y-110600000D03*
X134600000Y-107200000D03*
D20*
X134600000Y-107200000D03*
D19*
X137800000Y-103600000D03*
X134600000Y-107200000D03*
X134600000Y-107200000D03*
X133400000Y-109400000D03*
D20*
X134600000Y-107200000D03*
D19*
X134600000Y-107200000D03*
X138200000Y-109400000D03*
X134600000Y-107200000D03*
D20*
X134600000Y-107200000D03*
D19*
X134600000Y-107200000D03*
D20*
X134400000Y-110800000D03*
D19*
X134600000Y-107200000D03*
X132800000Y-103400000D03*
D20*
X134600000Y-107200000D03*
D19*
X131000000Y-104000000D03*
X134600000Y-107200000D03*
X130200000Y-108400000D03*
X134600000Y-107200000D03*
X134600000Y-107200000D03*
X135600000Y-106800000D03*
D20*
X134600000Y-107200000D03*
D19*
X134600000Y-107200000D03*
X134600000Y-107200000D03*
X134600000Y-107200000D03*
X135400000Y-104800000D03*
X134600000Y-107200000D03*
X134400000Y-103400000D03*
X134600000Y-107200000D03*
X130200000Y-105400000D03*
X134600000Y-107200000D03*
X134600000Y-107200000D03*
D20*
X134600000Y-107200000D03*
D19*
X136600000Y-107400000D03*
X134600000Y-107200000D03*
X134600000Y-107200000D03*
X134400000Y-107400000D03*
X134600000Y-107200000D03*
D20*
X134600000Y-107200000D03*
X134600000Y-107200000D03*
X134600000Y-107200000D03*
D19*
X134600000Y-107200000D03*
X139400000Y-106600000D03*
X131800000Y-106800000D03*
X137800000Y-104400000D03*
X134600000Y-107200000D03*
X137200000Y-105400000D03*
X134400000Y-105600000D03*
X134600000Y-107200000D03*
D20*
X134600000Y-107200000D03*
D19*
X136000000Y-103400000D03*
X134400000Y-107400000D03*
X134600000Y-107200000D03*
X134600000Y-107200000D03*
X134600000Y-107200000D03*
X134400000Y-107400000D03*
D20*
X134400000Y-110800000D03*
D19*
X131600000Y-108600000D03*
X134600000Y-107200000D03*
D20*
X134600000Y-107200000D03*
D19*
X131200000Y-107000000D03*
X134600000Y-107200000D03*
X134600000Y-107200000D03*
D20*
X134600000Y-107200000D03*
D19*
X134600000Y-107200000D03*
X134600000Y-107200000D03*
D20*
X134600000Y-107200000D03*
D19*
X133400000Y-108400000D03*
X134600000Y-107200000D03*
X132800000Y-110600000D03*
X134600000Y-107200000D03*
X134600000Y-107200000D03*
D20*
%TO.N,Net-(VR1-FB)*%
X140200000Y-119200000D03*
%TD*%
D21*
%TO.N,Net-(J1-Pin_1)*%
X118400000Y-104950000D02*
X121850000Y-108400000D01*
X136300000Y-114998000D02*
X136300000Y-116830000D01*
X136774000Y-114524000D02*
X136300000Y-114998000D01*
X121850000Y-115400000D02*
X122650000Y-116200000D01*
X121850000Y-108400000D02*
X121850000Y-115400000D01*
X149400000Y-115350000D02*
X148574000Y-114524000D01*
X148574000Y-114524000D02*
X136774000Y-114524000D01*
X118400000Y-100800000D02*
X118400000Y-104950000D01*
%TO.N,Net-(D1-K)*%
X163750000Y-100800000D02*
X158850000Y-105700000D01*
X141739000Y-126401000D02*
X124601000Y-126401000D01*
X158850000Y-106750000D02*
X159450000Y-107350000D01*
X141870000Y-125470000D02*
X141870000Y-126270000D01*
X150540000Y-117600000D02*
X159450000Y-117600000D01*
X124601000Y-126401000D02*
X123000000Y-124800000D01*
X158850000Y-105700000D02*
X158850000Y-106000000D01*
X143540000Y-124600000D02*
X150540000Y-117600000D01*
X158850000Y-106000000D02*
X158850000Y-106750000D01*
X159450000Y-107350000D02*
X159450000Y-117600000D01*
X141000000Y-124600000D02*
X141870000Y-125470000D01*
X165600000Y-100800000D02*
X163750000Y-100800000D01*
X143540000Y-124600000D02*
X141870000Y-126270000D01*
X141870000Y-126270000D02*
X141739000Y-126401000D01*
%TO.N,Net-(D1-A)*%
X134400000Y-110800000D02*
X134400000Y-116630000D01*
X134400000Y-109400000D02*
X134400000Y-110600000D01*
X136600000Y-107400000D02*
X137200000Y-107400000D01*
X134400000Y-110600000D02*
X134400000Y-110800000D01*
X137900000Y-106700000D02*
X138700000Y-105900000D01*
X134400000Y-107400000D02*
X135600000Y-107400000D01*
X135600000Y-107400000D02*
X136000000Y-107400000D01*
X139400000Y-105450000D02*
X149400000Y-105450000D01*
X137200000Y-107400000D02*
X137900000Y-106700000D01*
X138700000Y-105900000D02*
X139150000Y-105450000D01*
X134400000Y-116630000D02*
X134600000Y-116830000D01*
X134400000Y-107400000D02*
X134400000Y-108600000D01*
X134400000Y-108600000D02*
X134400000Y-109400000D01*
X139150000Y-105450000D02*
X139400000Y-105450000D01*
X134600000Y-119435000D02*
X134600000Y-116830000D01*
X127000000Y-124800000D02*
X129235000Y-124800000D01*
X136000000Y-107400000D02*
X136600000Y-107400000D01*
X129235000Y-124800000D02*
X134600000Y-119435000D01*
%TO.N,Net-(VR1-FB)*%
X131737500Y-124600000D02*
X138000000Y-118337500D01*
X138000000Y-117000000D02*
X140200000Y-119200000D01*
X138000000Y-118337500D02*
X138000000Y-116830000D01*
X138000000Y-116830000D02*
X138000000Y-117000000D01*
%TD*%
%TA.AperFunction,Conductor*%
%TO.N,GND*%
G36*
X163252932Y-99720185D02*
G01*
X163298687Y-99772989D01*
X163308631Y-99842147D01*
X163279606Y-99905703D01*
X163254785Y-99927600D01*
X163206500Y-99959863D01*
X163112215Y-100022862D01*
X163112214Y-100022863D01*
X158322724Y-104812354D01*
X158286191Y-104834963D01*
X158287205Y-104837137D01*
X158280665Y-104840186D01*
X158131342Y-104932289D01*
X158007289Y-105056342D01*
X157915187Y-105205663D01*
X157915185Y-105205668D01*
X157915115Y-105205880D01*
X157860001Y-105372203D01*
X157860001Y-105372204D01*
X157860000Y-105372204D01*
X157849500Y-105474983D01*
X157849500Y-105474991D01*
X157849500Y-105601458D01*
X157849500Y-105601459D01*
X157849500Y-105901459D01*
X157849500Y-106848541D01*
X157859835Y-106900500D01*
X157887949Y-107041836D01*
X157902619Y-107077251D01*
X157906149Y-107085775D01*
X157906150Y-107085776D01*
X157963364Y-107223906D01*
X157963371Y-107223919D01*
X158072860Y-107387782D01*
X158216537Y-107531459D01*
X158216559Y-107531479D01*
X158413181Y-107728101D01*
X158446666Y-107789424D01*
X158449500Y-107815782D01*
X158449500Y-116475500D01*
X158429815Y-116542539D01*
X158377011Y-116588294D01*
X158325500Y-116599500D01*
X152724500Y-116599500D01*
X152657461Y-116579815D01*
X152611706Y-116527011D01*
X152600500Y-116475500D01*
X152600499Y-113852129D01*
X152600498Y-113852123D01*
X152594091Y-113792516D01*
X152543797Y-113657671D01*
X152543793Y-113657664D01*
X152457546Y-113542454D01*
X152457544Y-113542452D01*
X152342335Y-113456206D01*
X152342328Y-113456202D01*
X152207482Y-113405908D01*
X152207483Y-113405908D01*
X152147883Y-113399501D01*
X152147881Y-113399500D01*
X152147873Y-113399500D01*
X152147864Y-113399500D01*
X146652129Y-113399500D01*
X146652123Y-113399501D01*
X146592516Y-113405908D01*
X146457671Y-113456202D01*
X146457668Y-113456204D01*
X146400812Y-113498767D01*
X146335348Y-113523184D01*
X146326501Y-113523500D01*
X136675457Y-113523500D01*
X136611934Y-113536136D01*
X136580172Y-113542454D01*
X136482167Y-113561948D01*
X136482159Y-113561950D01*
X136428834Y-113584037D01*
X136428834Y-113584038D01*
X136383315Y-113602892D01*
X136300089Y-113637366D01*
X136300079Y-113637371D01*
X136136219Y-113746859D01*
X136090563Y-113792516D01*
X135996861Y-113886218D01*
X135662217Y-114220862D01*
X135612180Y-114270898D01*
X135550857Y-114304382D01*
X135481165Y-114299397D01*
X135425232Y-114257525D01*
X135400816Y-114192061D01*
X135400500Y-114183216D01*
X135400500Y-112054499D01*
X135420185Y-111987460D01*
X135472989Y-111941705D01*
X135524500Y-111930499D01*
X138393621Y-111930499D01*
X138417811Y-111932881D01*
X138506382Y-111950499D01*
X138506383Y-111950500D01*
X138506384Y-111950500D01*
X138693617Y-111950500D01*
X138693617Y-111950499D01*
X138782188Y-111932881D01*
X138806379Y-111930499D01*
X139912871Y-111930499D01*
X139912872Y-111930499D01*
X139972483Y-111924091D01*
X140107331Y-111873796D01*
X140222546Y-111787546D01*
X140308796Y-111672331D01*
X140359091Y-111537483D01*
X140365500Y-111477873D01*
X140365499Y-110402817D01*
X140385183Y-110335779D01*
X140386397Y-110333927D01*
X140442322Y-110250231D01*
X140513973Y-110077251D01*
X140550500Y-109893616D01*
X140550500Y-109706384D01*
X140513973Y-109522749D01*
X140442322Y-109349769D01*
X140392871Y-109275761D01*
X140386396Y-109266070D01*
X140365519Y-109199393D01*
X140365499Y-109197180D01*
X140365499Y-106574500D01*
X140385184Y-106507461D01*
X140437988Y-106461706D01*
X140489499Y-106450500D01*
X146075501Y-106450500D01*
X146142540Y-106470185D01*
X146188295Y-106522989D01*
X146199501Y-106574500D01*
X146199501Y-106947876D01*
X146205908Y-107007483D01*
X146256202Y-107142328D01*
X146256206Y-107142335D01*
X146342452Y-107257544D01*
X146342455Y-107257547D01*
X146457664Y-107343793D01*
X146457671Y-107343797D01*
X146592517Y-107394091D01*
X146592516Y-107394091D01*
X146599444Y-107394835D01*
X146652127Y-107400500D01*
X152147872Y-107400499D01*
X152207483Y-107394091D01*
X152342331Y-107343796D01*
X152457546Y-107257546D01*
X152543796Y-107142331D01*
X152594091Y-107007483D01*
X152600500Y-106947873D01*
X152600499Y-103952128D01*
X152594091Y-103892517D01*
X152543796Y-103757669D01*
X152543795Y-103757668D01*
X152543793Y-103757664D01*
X152457547Y-103642455D01*
X152457544Y-103642452D01*
X152342335Y-103556206D01*
X152342328Y-103556202D01*
X152207482Y-103505908D01*
X152207483Y-103505908D01*
X152147883Y-103499501D01*
X152147881Y-103499500D01*
X152147873Y-103499500D01*
X152147864Y-103499500D01*
X146652129Y-103499500D01*
X146652123Y-103499501D01*
X146592516Y-103505908D01*
X146457671Y-103556202D01*
X146457664Y-103556206D01*
X146342455Y-103642452D01*
X146342452Y-103642455D01*
X146256206Y-103757664D01*
X146256202Y-103757671D01*
X146205908Y-103892517D01*
X146199501Y-103952116D01*
X146199501Y-103952123D01*
X146199500Y-103952135D01*
X146199500Y-104325500D01*
X146179815Y-104392539D01*
X146127011Y-104438294D01*
X146075500Y-104449500D01*
X140489499Y-104449500D01*
X140422460Y-104429815D01*
X140376705Y-104377011D01*
X140365499Y-104325500D01*
X140365499Y-102922129D01*
X140365498Y-102922123D01*
X140365497Y-102922116D01*
X140359091Y-102862517D01*
X140308796Y-102727669D01*
X140308795Y-102727668D01*
X140308793Y-102727664D01*
X140222547Y-102612455D01*
X140222544Y-102612452D01*
X140107335Y-102526206D01*
X140107328Y-102526202D01*
X139972482Y-102475908D01*
X139972483Y-102475908D01*
X139912883Y-102469501D01*
X139912881Y-102469500D01*
X139912873Y-102469500D01*
X139912865Y-102469500D01*
X139455200Y-102469500D01*
X139388161Y-102449815D01*
X139386309Y-102448602D01*
X139250237Y-102357681D01*
X139250228Y-102357676D01*
X139077251Y-102286027D01*
X139077243Y-102286025D01*
X138893620Y-102249500D01*
X138893616Y-102249500D01*
X138706384Y-102249500D01*
X138706379Y-102249500D01*
X138522756Y-102286025D01*
X138522748Y-102286027D01*
X138349771Y-102357676D01*
X138349762Y-102357681D01*
X138213691Y-102448602D01*
X138147013Y-102469480D01*
X138144800Y-102469500D01*
X136206376Y-102469500D01*
X136182185Y-102467117D01*
X136093619Y-102449500D01*
X136093616Y-102449500D01*
X135906384Y-102449500D01*
X135845059Y-102461698D01*
X135817810Y-102467118D01*
X135793620Y-102469500D01*
X134606380Y-102469500D01*
X134582190Y-102467118D01*
X134554941Y-102461698D01*
X134493616Y-102449500D01*
X134306384Y-102449500D01*
X134217814Y-102467117D01*
X134217809Y-102467118D01*
X134193619Y-102469500D01*
X133006380Y-102469500D01*
X132982190Y-102467118D01*
X132954941Y-102461698D01*
X132893616Y-102449500D01*
X132706384Y-102449500D01*
X132617814Y-102467117D01*
X132617809Y-102467118D01*
X132593619Y-102469500D01*
X132006381Y-102469500D01*
X131982191Y-102467118D01*
X131982186Y-102467117D01*
X131893616Y-102449500D01*
X131706384Y-102449500D01*
X131617813Y-102467117D01*
X131617808Y-102467118D01*
X131593618Y-102469500D01*
X130855200Y-102469500D01*
X130788161Y-102449815D01*
X130786309Y-102448602D01*
X130650237Y-102357681D01*
X130650228Y-102357676D01*
X130477251Y-102286027D01*
X130477243Y-102286025D01*
X130293620Y-102249500D01*
X130293616Y-102249500D01*
X130106384Y-102249500D01*
X130106379Y-102249500D01*
X129922756Y-102286025D01*
X129922748Y-102286027D01*
X129749771Y-102357676D01*
X129749762Y-102357681D01*
X129613691Y-102448602D01*
X129547013Y-102469480D01*
X129544800Y-102469500D01*
X129287130Y-102469500D01*
X129287123Y-102469501D01*
X129227516Y-102475908D01*
X129092671Y-102526202D01*
X129092664Y-102526206D01*
X128977455Y-102612452D01*
X128977452Y-102612455D01*
X128891206Y-102727664D01*
X128891202Y-102727671D01*
X128840908Y-102862517D01*
X128834501Y-102922116D01*
X128834501Y-102922123D01*
X128834500Y-102922135D01*
X128834500Y-111477870D01*
X128834501Y-111477876D01*
X128840908Y-111537483D01*
X128891202Y-111672328D01*
X128891206Y-111672335D01*
X128977452Y-111787544D01*
X128977455Y-111787547D01*
X129092664Y-111873793D01*
X129092671Y-111873797D01*
X129227517Y-111924091D01*
X129227516Y-111924091D01*
X129234444Y-111924835D01*
X129287127Y-111930500D01*
X133275500Y-111930499D01*
X133342539Y-111950184D01*
X133388294Y-112002988D01*
X133399500Y-112054499D01*
X133399500Y-114600500D01*
X133379815Y-114667539D01*
X133327011Y-114713294D01*
X133275500Y-114724500D01*
X132327129Y-114724500D01*
X132327123Y-114724501D01*
X132267516Y-114730908D01*
X132132671Y-114781202D01*
X132132666Y-114781205D01*
X132123890Y-114787775D01*
X132058425Y-114812189D01*
X131990152Y-114797335D01*
X131975276Y-114787774D01*
X131967095Y-114781650D01*
X131967086Y-114781645D01*
X131832379Y-114731403D01*
X131832372Y-114731401D01*
X131772844Y-114725000D01*
X131450000Y-114725000D01*
X131450000Y-118935000D01*
X131772828Y-118935000D01*
X131772844Y-118934999D01*
X131832372Y-118928598D01*
X131832376Y-118928597D01*
X131967089Y-118878351D01*
X131975268Y-118872229D01*
X132040732Y-118847809D01*
X132109005Y-118862658D01*
X132123897Y-118872229D01*
X132132668Y-118878796D01*
X132132670Y-118878797D01*
X132267517Y-118929091D01*
X132267516Y-118929091D01*
X132274444Y-118929835D01*
X132327127Y-118935500D01*
X133385217Y-118935499D01*
X133452256Y-118955183D01*
X133498011Y-119007987D01*
X133507955Y-119077146D01*
X133478930Y-119140702D01*
X133472898Y-119147180D01*
X128856899Y-123763181D01*
X128829971Y-123777884D01*
X128804153Y-123794477D01*
X128797952Y-123795368D01*
X128795576Y-123796666D01*
X128769218Y-123799500D01*
X128734798Y-123799500D01*
X128667759Y-123779815D01*
X128629259Y-123740597D01*
X128592712Y-123681344D01*
X128468656Y-123557288D01*
X128325385Y-123468918D01*
X128319336Y-123465187D01*
X128319331Y-123465185D01*
X128317862Y-123464698D01*
X128152797Y-123410001D01*
X128152795Y-123410000D01*
X128050010Y-123399500D01*
X125949998Y-123399500D01*
X125949981Y-123399501D01*
X125847203Y-123410000D01*
X125847200Y-123410001D01*
X125680668Y-123465185D01*
X125680663Y-123465187D01*
X125531342Y-123557289D01*
X125407289Y-123681342D01*
X125315187Y-123830663D01*
X125315186Y-123830666D01*
X125260001Y-123997203D01*
X125260001Y-123997204D01*
X125260000Y-123997204D01*
X125249500Y-124099983D01*
X125249500Y-124099991D01*
X125249500Y-124696055D01*
X125249501Y-125276500D01*
X125246950Y-125285185D01*
X125248239Y-125294147D01*
X125237260Y-125318187D01*
X125229816Y-125343539D01*
X125222975Y-125349466D01*
X125219214Y-125357703D01*
X125196981Y-125371990D01*
X125177013Y-125389294D01*
X125166497Y-125391581D01*
X125160436Y-125395477D01*
X125125501Y-125400500D01*
X125066782Y-125400500D01*
X124999743Y-125380815D01*
X124979101Y-125364181D01*
X124786818Y-125171898D01*
X124753333Y-125110575D01*
X124750499Y-125084217D01*
X124750499Y-124099998D01*
X124750498Y-124099981D01*
X124739999Y-123997203D01*
X124739998Y-123997200D01*
X124727776Y-123960318D01*
X124684814Y-123830666D01*
X124592712Y-123681344D01*
X124468656Y-123557288D01*
X124325385Y-123468918D01*
X124319336Y-123465187D01*
X124319331Y-123465185D01*
X124317862Y-123464698D01*
X124152797Y-123410001D01*
X124152795Y-123410000D01*
X124050010Y-123399500D01*
X121949998Y-123399500D01*
X121949981Y-123399501D01*
X121847203Y-123410000D01*
X121847200Y-123410001D01*
X121680668Y-123465185D01*
X121680663Y-123465187D01*
X121531342Y-123557289D01*
X121407289Y-123681342D01*
X121315187Y-123830663D01*
X121315186Y-123830666D01*
X121260001Y-123997203D01*
X121260001Y-123997204D01*
X121260000Y-123997204D01*
X121249500Y-124099983D01*
X121249500Y-125500001D01*
X121249501Y-125500018D01*
X121260000Y-125602796D01*
X121260001Y-125602799D01*
X121315185Y-125769331D01*
X121315187Y-125769336D01*
X121331439Y-125795684D01*
X121407288Y-125918656D01*
X121531344Y-126042712D01*
X121680666Y-126134814D01*
X121847203Y-126189999D01*
X121949991Y-126200500D01*
X122934217Y-126200499D01*
X123001256Y-126220183D01*
X123021898Y-126236818D01*
X123820735Y-127035655D01*
X123820764Y-127035686D01*
X123963214Y-127178136D01*
X123963218Y-127178139D01*
X124127079Y-127287628D01*
X124127092Y-127287635D01*
X124255833Y-127340961D01*
X124277656Y-127350000D01*
X124309164Y-127363051D01*
X124405812Y-127382275D01*
X124454135Y-127391887D01*
X124502458Y-127401500D01*
X124502459Y-127401500D01*
X141837542Y-127401500D01*
X141868566Y-127395328D01*
X141934188Y-127382275D01*
X142030836Y-127363051D01*
X142084165Y-127340961D01*
X142212914Y-127287632D01*
X142376782Y-127178139D01*
X142516139Y-127038782D01*
X142516140Y-127038781D01*
X142647139Y-126907782D01*
X142647140Y-126907779D01*
X143724444Y-125830475D01*
X143785765Y-125796992D01*
X143792684Y-125795692D01*
X143825801Y-125790447D01*
X144008509Y-125731082D01*
X144179681Y-125643865D01*
X144335102Y-125530945D01*
X144470945Y-125395102D01*
X144583865Y-125239681D01*
X144671082Y-125068509D01*
X144671084Y-125068504D01*
X144692069Y-125003919D01*
X144731506Y-124946243D01*
X144795864Y-124919044D01*
X144864711Y-124930958D01*
X144916187Y-124978202D01*
X144927931Y-125003919D01*
X144948915Y-125068504D01*
X145026211Y-125220205D01*
X145036135Y-125239681D01*
X145149055Y-125395102D01*
X145284898Y-125530945D01*
X145440319Y-125643865D01*
X145611491Y-125731082D01*
X145611493Y-125731083D01*
X145702845Y-125760764D01*
X145794199Y-125790447D01*
X145983945Y-125820500D01*
X145983946Y-125820500D01*
X146176054Y-125820500D01*
X146176055Y-125820500D01*
X146365801Y-125790447D01*
X146548509Y-125731082D01*
X146719681Y-125643865D01*
X146875102Y-125530945D01*
X147010945Y-125395102D01*
X147123865Y-125239681D01*
X147211082Y-125068509D01*
X147270447Y-124885801D01*
X147300500Y-124696055D01*
X147300500Y-124503945D01*
X147270447Y-124314199D01*
X147240424Y-124221797D01*
X147211083Y-124131493D01*
X147123864Y-123960318D01*
X147010945Y-123804898D01*
X146875102Y-123669055D01*
X146719681Y-123556135D01*
X146622570Y-123506654D01*
X146548506Y-123468916D01*
X146391871Y-123418023D01*
X146334196Y-123378586D01*
X146306997Y-123314227D01*
X146318911Y-123245381D01*
X146342505Y-123212414D01*
X150918101Y-118636819D01*
X150979424Y-118603334D01*
X151005782Y-118600500D01*
X158574238Y-118600500D01*
X158641277Y-118620185D01*
X158647119Y-118624179D01*
X158768390Y-118712287D01*
X158884607Y-118771503D01*
X158950776Y-118805218D01*
X158950778Y-118805218D01*
X158950781Y-118805220D01*
X159055137Y-118839127D01*
X159145465Y-118868477D01*
X159210623Y-118878797D01*
X159347648Y-118900500D01*
X159347649Y-118900500D01*
X159552351Y-118900500D01*
X159552352Y-118900500D01*
X159754534Y-118868477D01*
X159949219Y-118805220D01*
X160131610Y-118712287D01*
X160258379Y-118620185D01*
X160297213Y-118591971D01*
X160297215Y-118591968D01*
X160297219Y-118591966D01*
X160441966Y-118447219D01*
X160441968Y-118447215D01*
X160441971Y-118447213D01*
X160494732Y-118374590D01*
X160562287Y-118281610D01*
X160655220Y-118099219D01*
X160718477Y-117904534D01*
X160750500Y-117702352D01*
X160750500Y-117497682D01*
X161650000Y-117497682D01*
X161650000Y-117702317D01*
X161682009Y-117904417D01*
X161745244Y-118099031D01*
X161838141Y-118281350D01*
X161838147Y-118281359D01*
X161870523Y-118325921D01*
X161870524Y-118325922D01*
X162550000Y-117646446D01*
X162550000Y-117652661D01*
X162577259Y-117754394D01*
X162629920Y-117845606D01*
X162704394Y-117920080D01*
X162795606Y-117972741D01*
X162897339Y-118000000D01*
X162903553Y-118000000D01*
X162224076Y-118679474D01*
X162268650Y-118711859D01*
X162450968Y-118804755D01*
X162645582Y-118867990D01*
X162847683Y-118900000D01*
X163052317Y-118900000D01*
X163254417Y-118867990D01*
X163449031Y-118804755D01*
X163631349Y-118711859D01*
X163675921Y-118679474D01*
X162996447Y-118000000D01*
X163002661Y-118000000D01*
X163104394Y-117972741D01*
X163195606Y-117920080D01*
X163270080Y-117845606D01*
X163322741Y-117754394D01*
X163350000Y-117652661D01*
X163350000Y-117646447D01*
X164029474Y-118325921D01*
X164061859Y-118281349D01*
X164154755Y-118099031D01*
X164217990Y-117904417D01*
X164250000Y-117702317D01*
X164250000Y-117497682D01*
X164217990Y-117295582D01*
X164154755Y-117100968D01*
X164061859Y-116918650D01*
X164029474Y-116874077D01*
X164029474Y-116874076D01*
X163350000Y-117553551D01*
X163350000Y-117547339D01*
X163322741Y-117445606D01*
X163270080Y-117354394D01*
X163195606Y-117279920D01*
X163104394Y-117227259D01*
X163002661Y-117200000D01*
X162996446Y-117200000D01*
X163675922Y-116520524D01*
X163675921Y-116520523D01*
X163631359Y-116488147D01*
X163631350Y-116488141D01*
X163449031Y-116395244D01*
X163254417Y-116332009D01*
X163052317Y-116300000D01*
X162847683Y-116300000D01*
X162645582Y-116332009D01*
X162450968Y-116395244D01*
X162268644Y-116488143D01*
X162224077Y-116520523D01*
X162224077Y-116520524D01*
X162903554Y-117200000D01*
X162897339Y-117200000D01*
X162795606Y-117227259D01*
X162704394Y-117279920D01*
X162629920Y-117354394D01*
X162577259Y-117445606D01*
X162550000Y-117547339D01*
X162550000Y-117553553D01*
X161870524Y-116874077D01*
X161870523Y-116874077D01*
X161838143Y-116918644D01*
X161745244Y-117100968D01*
X161682009Y-117295582D01*
X161650000Y-117497682D01*
X160750500Y-117497682D01*
X160750500Y-117497648D01*
X160738993Y-117424998D01*
X160718477Y-117295465D01*
X160669050Y-117143345D01*
X160655220Y-117100781D01*
X160655218Y-117100778D01*
X160655218Y-117100776D01*
X160562419Y-116918650D01*
X160562287Y-116918390D01*
X160511053Y-116847872D01*
X160474182Y-116797122D01*
X160467029Y-116777077D01*
X160455523Y-116759172D01*
X160452068Y-116735145D01*
X160450702Y-116731316D01*
X160450500Y-116724237D01*
X160450500Y-107325861D01*
X160470185Y-107258822D01*
X160486819Y-107238180D01*
X160500000Y-107224999D01*
X161000000Y-107224999D01*
X161049972Y-107224999D01*
X161049986Y-107224998D01*
X161152697Y-107214505D01*
X161319119Y-107159358D01*
X161319124Y-107159356D01*
X161468345Y-107067315D01*
X161592315Y-106943345D01*
X161684356Y-106794124D01*
X161684358Y-106794119D01*
X161739505Y-106627697D01*
X161739506Y-106627690D01*
X161749999Y-106524986D01*
X161750000Y-106524973D01*
X161750000Y-106250000D01*
X161000000Y-106250000D01*
X161000000Y-107224999D01*
X160500000Y-107224999D01*
X160500000Y-106124000D01*
X160519685Y-106056961D01*
X160572489Y-106011206D01*
X160624000Y-106000000D01*
X160750000Y-106000000D01*
X160750000Y-105874000D01*
X160769685Y-105806961D01*
X160822489Y-105761206D01*
X160874000Y-105750000D01*
X161749999Y-105750000D01*
X161749999Y-105475028D01*
X161749998Y-105475013D01*
X161739505Y-105372302D01*
X161684358Y-105205880D01*
X161684356Y-105205875D01*
X161592315Y-105056654D01*
X161468345Y-104932684D01*
X161332084Y-104848638D01*
X161285360Y-104796690D01*
X161274137Y-104727727D01*
X161301981Y-104663645D01*
X161309475Y-104655445D01*
X164106568Y-101858352D01*
X164167889Y-101824869D01*
X164237581Y-101829853D01*
X164293514Y-101871725D01*
X164303080Y-101886610D01*
X164306205Y-101892334D01*
X164392452Y-102007544D01*
X164392455Y-102007547D01*
X164507664Y-102093793D01*
X164507671Y-102093797D01*
X164642517Y-102144091D01*
X164642516Y-102144091D01*
X164649444Y-102144835D01*
X164702127Y-102150500D01*
X166497872Y-102150499D01*
X166557483Y-102144091D01*
X166692331Y-102093796D01*
X166701186Y-102087166D01*
X166766649Y-102062747D01*
X166834923Y-102077596D01*
X166884330Y-102127000D01*
X166899500Y-102186431D01*
X166899500Y-126214192D01*
X166879815Y-126281231D01*
X166827011Y-126326986D01*
X166757853Y-126336930D01*
X166701190Y-126313460D01*
X166692088Y-126306646D01*
X166692086Y-126306645D01*
X166557379Y-126256403D01*
X166557372Y-126256401D01*
X166497844Y-126250000D01*
X165850000Y-126250000D01*
X165850000Y-127166988D01*
X165792993Y-127134075D01*
X165665826Y-127100000D01*
X165534174Y-127100000D01*
X165407007Y-127134075D01*
X165350000Y-127166988D01*
X165350000Y-126250000D01*
X164702155Y-126250000D01*
X164642627Y-126256401D01*
X164642620Y-126256403D01*
X164507913Y-126306645D01*
X164507906Y-126306649D01*
X164392812Y-126392809D01*
X164392809Y-126392812D01*
X164306649Y-126507906D01*
X164306645Y-126507913D01*
X164256403Y-126642620D01*
X164256401Y-126642627D01*
X164250000Y-126702155D01*
X164250000Y-127350000D01*
X165166988Y-127350000D01*
X165134075Y-127407007D01*
X165100000Y-127534174D01*
X165100000Y-127665826D01*
X165134075Y-127792993D01*
X165166988Y-127850000D01*
X164250000Y-127850000D01*
X164250000Y-128497844D01*
X164256925Y-128562244D01*
X164244520Y-128631004D01*
X164196910Y-128682141D01*
X164133636Y-128699500D01*
X119866364Y-128699500D01*
X119799325Y-128679815D01*
X119753570Y-128627011D01*
X119743075Y-128562244D01*
X119749999Y-128497844D01*
X119750000Y-128497827D01*
X119750000Y-127850000D01*
X118833012Y-127850000D01*
X118865925Y-127792993D01*
X118900000Y-127665826D01*
X118900000Y-127534174D01*
X118865925Y-127407007D01*
X118833012Y-127350000D01*
X119750000Y-127350000D01*
X119750000Y-126702172D01*
X119749999Y-126702155D01*
X119743598Y-126642627D01*
X119743596Y-126642620D01*
X119693354Y-126507913D01*
X119693350Y-126507906D01*
X119607190Y-126392812D01*
X119607187Y-126392809D01*
X119492093Y-126306649D01*
X119492086Y-126306645D01*
X119357379Y-126256403D01*
X119357372Y-126256401D01*
X119297844Y-126250000D01*
X118650000Y-126250000D01*
X118650000Y-127166988D01*
X118592993Y-127134075D01*
X118465826Y-127100000D01*
X118334174Y-127100000D01*
X118207007Y-127134075D01*
X118150000Y-127166988D01*
X118150000Y-126250000D01*
X117502155Y-126250000D01*
X117437756Y-126256925D01*
X117368996Y-126244520D01*
X117317859Y-126196910D01*
X117300500Y-126133636D01*
X117300500Y-118482844D01*
X130175000Y-118482844D01*
X130181401Y-118542372D01*
X130181403Y-118542379D01*
X130231645Y-118677086D01*
X130231649Y-118677093D01*
X130317809Y-118792187D01*
X130317812Y-118792190D01*
X130432906Y-118878350D01*
X130432913Y-118878354D01*
X130567620Y-118928596D01*
X130567627Y-118928598D01*
X130627155Y-118934999D01*
X130627172Y-118935000D01*
X130950000Y-118935000D01*
X130950000Y-117080000D01*
X130175000Y-117080000D01*
X130175000Y-118482844D01*
X117300500Y-118482844D01*
X117300500Y-105514108D01*
X117320185Y-105447069D01*
X117372989Y-105401314D01*
X117442147Y-105391370D01*
X117505703Y-105420395D01*
X117527602Y-105445217D01*
X117622860Y-105587782D01*
X117766537Y-105731459D01*
X117766559Y-105731479D01*
X120523281Y-108488201D01*
X120556766Y-108549524D01*
X120558073Y-108556483D01*
X120581523Y-108704535D01*
X120644781Y-108899223D01*
X120737580Y-109081349D01*
X120737713Y-109081610D01*
X120825819Y-109202877D01*
X120849298Y-109268681D01*
X120849500Y-109275761D01*
X120849500Y-115498541D01*
X120849500Y-115498543D01*
X120849499Y-115498543D01*
X120887947Y-115691829D01*
X120887950Y-115691839D01*
X120963364Y-115873907D01*
X120963371Y-115873920D01*
X121072860Y-116037781D01*
X121072863Y-116037785D01*
X121216537Y-116181459D01*
X121216559Y-116181479D01*
X121613181Y-116578101D01*
X121646666Y-116639424D01*
X121649500Y-116665780D01*
X121649500Y-116725000D01*
X121649501Y-116725019D01*
X121660000Y-116827796D01*
X121660001Y-116827799D01*
X121713628Y-116989631D01*
X121715186Y-116994334D01*
X121807288Y-117143656D01*
X121931344Y-117267712D01*
X122080666Y-117359814D01*
X122247203Y-117414999D01*
X122349991Y-117425500D01*
X122950008Y-117425499D01*
X122950016Y-117425498D01*
X122950019Y-117425498D01*
X123006302Y-117419748D01*
X123052797Y-117414999D01*
X123219334Y-117359814D01*
X123368656Y-117267712D01*
X123492712Y-117143656D01*
X123494752Y-117140347D01*
X123496745Y-117138555D01*
X123497193Y-117137989D01*
X123497289Y-117138065D01*
X123546694Y-117093623D01*
X123615656Y-117082395D01*
X123679740Y-117110234D01*
X123705829Y-117140339D01*
X123707681Y-117143341D01*
X123707683Y-117143344D01*
X123831654Y-117267315D01*
X123980875Y-117359356D01*
X123980880Y-117359358D01*
X124147302Y-117414505D01*
X124147309Y-117414506D01*
X124250019Y-117424999D01*
X124800000Y-117424999D01*
X124849972Y-117424999D01*
X124849986Y-117424998D01*
X124952697Y-117414505D01*
X125119119Y-117359358D01*
X125119124Y-117359356D01*
X125268345Y-117267315D01*
X125392315Y-117143345D01*
X125484356Y-116994124D01*
X125484359Y-116994117D01*
X125485846Y-116989631D01*
X125539505Y-116827697D01*
X125539506Y-116827690D01*
X125549999Y-116724986D01*
X125550000Y-116724973D01*
X125550000Y-116450000D01*
X124800000Y-116450000D01*
X124800000Y-117424999D01*
X124250019Y-117424999D01*
X124299999Y-117424998D01*
X124300000Y-117424998D01*
X124300000Y-115950000D01*
X124800000Y-115950000D01*
X125549999Y-115950000D01*
X125549999Y-115675028D01*
X125549998Y-115675013D01*
X125539505Y-115572302D01*
X125484358Y-115405880D01*
X125484356Y-115405875D01*
X125392315Y-115256654D01*
X125312816Y-115177155D01*
X130175000Y-115177155D01*
X130175000Y-116580000D01*
X130950000Y-116580000D01*
X130950000Y-114725000D01*
X130627155Y-114725000D01*
X130567627Y-114731401D01*
X130567620Y-114731403D01*
X130432913Y-114781645D01*
X130432906Y-114781649D01*
X130317812Y-114867809D01*
X130317809Y-114867812D01*
X130231649Y-114982906D01*
X130231645Y-114982913D01*
X130181403Y-115117620D01*
X130181401Y-115117627D01*
X130175000Y-115177155D01*
X125312816Y-115177155D01*
X125268345Y-115132684D01*
X125119124Y-115040643D01*
X125119119Y-115040641D01*
X124952697Y-114985494D01*
X124952690Y-114985493D01*
X124849986Y-114975000D01*
X124800000Y-114975000D01*
X124800000Y-115950000D01*
X124300000Y-115950000D01*
X124300000Y-114975000D01*
X124299999Y-114974999D01*
X124250029Y-114975000D01*
X124250011Y-114975001D01*
X124147302Y-114985494D01*
X123980880Y-115040641D01*
X123980875Y-115040643D01*
X123831654Y-115132684D01*
X123707683Y-115256655D01*
X123707679Y-115256660D01*
X123705826Y-115259665D01*
X123704018Y-115261290D01*
X123703202Y-115262323D01*
X123703025Y-115262183D01*
X123653874Y-115306385D01*
X123584911Y-115317601D01*
X123520831Y-115289752D01*
X123494753Y-115259653D01*
X123494737Y-115259628D01*
X123492712Y-115256344D01*
X123368656Y-115132288D01*
X123219334Y-115040186D01*
X123052797Y-114985001D01*
X123052794Y-114985000D01*
X122961897Y-114975714D01*
X122897205Y-114949317D01*
X122857054Y-114892136D01*
X122850500Y-114852356D01*
X122850500Y-109275761D01*
X122870185Y-109208722D01*
X122874165Y-109202899D01*
X122962287Y-109081610D01*
X123055220Y-108899219D01*
X123118477Y-108704534D01*
X123150500Y-108502352D01*
X123150500Y-108297682D01*
X124050000Y-108297682D01*
X124050000Y-108502317D01*
X124082009Y-108704417D01*
X124145244Y-108899031D01*
X124238141Y-109081350D01*
X124238147Y-109081359D01*
X124270523Y-109125921D01*
X124270524Y-109125922D01*
X124950000Y-108446446D01*
X124950000Y-108452661D01*
X124977259Y-108554394D01*
X125029920Y-108645606D01*
X125104394Y-108720080D01*
X125195606Y-108772741D01*
X125297339Y-108800000D01*
X125303553Y-108800000D01*
X124624076Y-109479474D01*
X124668650Y-109511859D01*
X124850968Y-109604755D01*
X125045582Y-109667990D01*
X125247683Y-109700000D01*
X125452317Y-109700000D01*
X125654417Y-109667990D01*
X125849031Y-109604755D01*
X126031349Y-109511859D01*
X126075921Y-109479474D01*
X125396447Y-108800000D01*
X125402661Y-108800000D01*
X125504394Y-108772741D01*
X125595606Y-108720080D01*
X125670080Y-108645606D01*
X125722741Y-108554394D01*
X125750000Y-108452661D01*
X125750000Y-108446447D01*
X126429474Y-109125921D01*
X126461859Y-109081349D01*
X126554755Y-108899031D01*
X126617990Y-108704417D01*
X126650000Y-108502317D01*
X126650000Y-108297682D01*
X126617990Y-108095582D01*
X126554755Y-107900968D01*
X126461859Y-107718650D01*
X126429474Y-107674077D01*
X126429474Y-107674076D01*
X125750000Y-108353551D01*
X125750000Y-108347339D01*
X125722741Y-108245606D01*
X125670080Y-108154394D01*
X125595606Y-108079920D01*
X125504394Y-108027259D01*
X125402661Y-108000000D01*
X125396446Y-108000000D01*
X126075922Y-107320524D01*
X126075921Y-107320523D01*
X126031359Y-107288147D01*
X126031350Y-107288141D01*
X125849031Y-107195244D01*
X125654417Y-107132009D01*
X125452317Y-107100000D01*
X125247683Y-107100000D01*
X125045582Y-107132009D01*
X124850968Y-107195244D01*
X124668644Y-107288143D01*
X124624077Y-107320523D01*
X124624077Y-107320524D01*
X125303554Y-108000000D01*
X125297339Y-108000000D01*
X125195606Y-108027259D01*
X125104394Y-108079920D01*
X125029920Y-108154394D01*
X124977259Y-108245606D01*
X124950000Y-108347339D01*
X124950000Y-108353553D01*
X124270524Y-107674077D01*
X124270523Y-107674077D01*
X124238143Y-107718644D01*
X124145244Y-107900968D01*
X124082009Y-108095582D01*
X124050000Y-108297682D01*
X123150500Y-108297682D01*
X123150500Y-108297648D01*
X123142257Y-108245606D01*
X123118477Y-108095465D01*
X123087458Y-108000000D01*
X123055220Y-107900781D01*
X123055218Y-107900778D01*
X123055218Y-107900776D01*
X123011911Y-107815782D01*
X122962287Y-107718390D01*
X122930092Y-107674077D01*
X122841971Y-107552786D01*
X122697213Y-107408028D01*
X122531613Y-107287715D01*
X122531612Y-107287714D01*
X122531610Y-107287713D01*
X122460458Y-107251459D01*
X122349223Y-107194781D01*
X122154535Y-107131523D01*
X122006483Y-107108073D01*
X121943349Y-107078143D01*
X121938201Y-107073281D01*
X119436819Y-104571899D01*
X119403334Y-104510576D01*
X119400500Y-104484218D01*
X119400500Y-102214141D01*
X119420185Y-102147102D01*
X119472989Y-102101347D01*
X119481149Y-102097966D01*
X119492331Y-102093796D01*
X119499501Y-102088429D01*
X119533807Y-102062747D01*
X119607546Y-102007546D01*
X119693796Y-101892331D01*
X119744091Y-101757483D01*
X119750500Y-101697873D01*
X119750499Y-99902128D01*
X119744091Y-99842517D01*
X119743579Y-99837753D01*
X119755986Y-99768994D01*
X119803597Y-99717857D01*
X119866869Y-99700500D01*
X163185893Y-99700500D01*
X163252932Y-99720185D01*
G37*
%TD.AperFunction*%
%TA.AperFunction,Conductor*%
G36*
X146142540Y-115544185D02*
G01*
X146188295Y-115596989D01*
X146199501Y-115648500D01*
X146199501Y-116847876D01*
X146205908Y-116907483D01*
X146256202Y-117042328D01*
X146256206Y-117042335D01*
X146342452Y-117157544D01*
X146342455Y-117157547D01*
X146457664Y-117243793D01*
X146457671Y-117243797D01*
X146592517Y-117294091D01*
X146592516Y-117294091D01*
X146599444Y-117294835D01*
X146652127Y-117300500D01*
X149125217Y-117300499D01*
X149192256Y-117320184D01*
X149238011Y-117372987D01*
X149247955Y-117442146D01*
X149218930Y-117505702D01*
X149212898Y-117512180D01*
X143355557Y-123369521D01*
X143294234Y-123403006D01*
X143287277Y-123404313D01*
X143254198Y-123409553D01*
X143071495Y-123468915D01*
X142900318Y-123556135D01*
X142811645Y-123620560D01*
X142744898Y-123669055D01*
X142744896Y-123669057D01*
X142744895Y-123669057D01*
X142609057Y-123804895D01*
X142609057Y-123804896D01*
X142609055Y-123804898D01*
X142590332Y-123830668D01*
X142496135Y-123960318D01*
X142408916Y-124131493D01*
X142387931Y-124196081D01*
X142348494Y-124253756D01*
X142284135Y-124280955D01*
X142215289Y-124269041D01*
X142163813Y-124221797D01*
X142152069Y-124196081D01*
X142131083Y-124131493D01*
X142043864Y-123960318D01*
X141930945Y-123804898D01*
X141795102Y-123669055D01*
X141639681Y-123556135D01*
X141542570Y-123506654D01*
X141468506Y-123468916D01*
X141285802Y-123409553D01*
X141190928Y-123394526D01*
X141096055Y-123379500D01*
X140903945Y-123379500D01*
X140840696Y-123389517D01*
X140714197Y-123409553D01*
X140531493Y-123468916D01*
X140360318Y-123556135D01*
X140271645Y-123620560D01*
X140204898Y-123669055D01*
X140204896Y-123669057D01*
X140204895Y-123669057D01*
X140069057Y-123804895D01*
X140069057Y-123804896D01*
X140069055Y-123804898D01*
X140050332Y-123830668D01*
X139956135Y-123960318D01*
X139868916Y-124131493D01*
X139809553Y-124314197D01*
X139779500Y-124503945D01*
X139779500Y-124696054D01*
X139809553Y-124885802D01*
X139868917Y-125068509D01*
X139868919Y-125068513D01*
X139946211Y-125220205D01*
X139959108Y-125288874D01*
X139932832Y-125353614D01*
X139875726Y-125393872D01*
X139835727Y-125400500D01*
X135849000Y-125400500D01*
X135781961Y-125380815D01*
X135736206Y-125328011D01*
X135725000Y-125276500D01*
X135725000Y-124850000D01*
X133600001Y-124850000D01*
X133600001Y-125276500D01*
X133580316Y-125343539D01*
X133527512Y-125389294D01*
X133476001Y-125400500D01*
X132924500Y-125400500D01*
X132857461Y-125380815D01*
X132811706Y-125328011D01*
X132800500Y-125276500D01*
X132800500Y-125171898D01*
X132800499Y-125003280D01*
X132820183Y-124936242D01*
X132836813Y-124915605D01*
X133413530Y-124338888D01*
X133474851Y-124305405D01*
X133544543Y-124310389D01*
X133588890Y-124338890D01*
X133600000Y-124350000D01*
X135724999Y-124350000D01*
X135724999Y-123925028D01*
X135724998Y-123925013D01*
X135714505Y-123822302D01*
X135659358Y-123655880D01*
X135659356Y-123655875D01*
X135567315Y-123506654D01*
X135443345Y-123382684D01*
X135294124Y-123290643D01*
X135294119Y-123290641D01*
X135127697Y-123235494D01*
X135127690Y-123235493D01*
X135024986Y-123225000D01*
X134826780Y-123225000D01*
X134759741Y-123205315D01*
X134713986Y-123152511D01*
X134704042Y-123083353D01*
X134733067Y-123019797D01*
X134739081Y-123013338D01*
X138581070Y-119171349D01*
X138642391Y-119137866D01*
X138712083Y-119142850D01*
X138756430Y-119171351D01*
X139562215Y-119977136D01*
X139562219Y-119977139D01*
X139726079Y-120086627D01*
X139726083Y-120086629D01*
X139726086Y-120086631D01*
X139908164Y-120162051D01*
X140101455Y-120200499D01*
X140101458Y-120200500D01*
X140101460Y-120200500D01*
X140298542Y-120200500D01*
X140298543Y-120200499D01*
X140491836Y-120162051D01*
X140673914Y-120086631D01*
X140837781Y-119977139D01*
X140977139Y-119837781D01*
X141086631Y-119673914D01*
X141162051Y-119491836D01*
X141200500Y-119298540D01*
X141200500Y-119101460D01*
X141200500Y-119101457D01*
X141200499Y-119101455D01*
X141181907Y-119007987D01*
X141162051Y-118908164D01*
X141086631Y-118726086D01*
X141086629Y-118726083D01*
X141086627Y-118726079D01*
X140977139Y-118562219D01*
X140977136Y-118562215D01*
X139061818Y-116646897D01*
X139028333Y-116585574D01*
X139025499Y-116559216D01*
X139025499Y-115648500D01*
X139045184Y-115581461D01*
X139097988Y-115535706D01*
X139149499Y-115524500D01*
X146075501Y-115524500D01*
X146142540Y-115544185D01*
G37*
%TD.AperFunction*%
%TD*%
M02*
