%TF.GenerationSoftware,KiCad,Pcbnew,9.0.3*%
%TF.CreationDate,2026-02-07T01:57:28+05:30*%
%TF.ProjectId,dc dc boost converter,64632064-6320-4626-9f6f-737420636f6e,rev?*%
%TF.SameCoordinates,Original*%
%TF.FileFunction,Copper,L2,Bot*%
%TF.FilePolarity,Positive*%
%FSLAX46Y46*%
G04 Gerber Fmt 4.6, Leading zero omitted, Abs format (unit mm)*
G04 Created by KiCad (PCBNEW 9.0.3) date 2026-02-07 01:57:28*
%MOMM*%
%LPD*%
G01*
G04 APERTURE LIST*
%TA.AperFunction,ComponentPad*%
%ADD10C,1.600000*%
%TD*%
%TA.AperFunction,ComponentPad*%
%ADD11C,1.440000*%
%TD*%
%TA.AperFunction,ComponentPad*%
%ADD12R,1.700000X1.700000*%
%TD*%
%TA.AperFunction,ViaPad*%
%ADD13C,0.900000*%
%TD*%
%TA.AperFunction,ViaPad*%
%ADD14C,0.600000*%
%TD*%
%TA.AperFunction,Conductor*%
%ADD15C,1.000000*%
%TD*%
G04 APERTURE END LIST*
D10*
%TO.P,C1,1*%
%TO.N,Net-(J1-Pin_1)*%
X121850000Y-108400000D03*
%TO.P,C1,2*%
%TO.N,GND*%
X125350000Y-108400000D03*
%TD*%
D11*
%TO.P,RV1,1,1*%
%TO.N,Net-(VR1-FB)*%
X146080000Y-124600000D03*
%TO.P,RV1,2,2*%
%TO.N,Net-(D1-K)*%
X143540000Y-124600000D03*
%TO.P,RV1,3,3*%
X141000000Y-124600000D03*
%TD*%
D12*
%TO.P,J4,1,Pin_1*%
%TO.N,Net-(D1-K)*%
X165600000Y-100800000D03*
%TD*%
%TO.P,J3,1,Pin_1*%
%TO.N,GND*%
X165600000Y-127600000D03*
%TD*%
%TO.P,J2,1,Pin_1*%
%TO.N,GND*%
X118400000Y-127600000D03*
%TD*%
%TO.P,J1,1,Pin_1*%
%TO.N,Net-(J1-Pin_1)*%
X118400000Y-100800000D03*
%TD*%
D10*
%TO.P,C4,1*%
%TO.N,Net-(D1-K)*%
X159450000Y-117600000D03*
%TO.P,C4,2*%
%TO.N,GND*%
X162950000Y-117600000D03*
%TD*%
D13*
%TO.N,Net-(D1-A)*%
X134400000Y-109400000D03*
D14*
X134600000Y-107200000D03*
D13*
X134600000Y-107200000D03*
X134600000Y-107200000D03*
X132600000Y-108800000D03*
X134600000Y-107200000D03*
X136600000Y-108400000D03*
D14*
X134600000Y-107200000D03*
D13*
X134600000Y-107200000D03*
X134600000Y-107200000D03*
X134400000Y-107400000D03*
X134400000Y-107400000D03*
X130200000Y-110600000D03*
X134600000Y-107200000D03*
D14*
X134600000Y-107200000D03*
D13*
X134600000Y-107200000D03*
X134600000Y-107200000D03*
X131800000Y-104800000D03*
X139200000Y-110600000D03*
X135200000Y-105600000D03*
X134600000Y-107200000D03*
X139400000Y-105600000D03*
X134600000Y-107200000D03*
X137900000Y-106700000D03*
X134600000Y-107200000D03*
D14*
X134400000Y-110800000D03*
D13*
X138800000Y-103200000D03*
X134600000Y-107200000D03*
X131800000Y-106000000D03*
X134600000Y-107200000D03*
X130200000Y-103200000D03*
X134400000Y-107400000D03*
X134600000Y-107200000D03*
X131800000Y-103400000D03*
D14*
X134600000Y-107200000D03*
D13*
X135800000Y-108400000D03*
X134600000Y-107200000D03*
X138400000Y-107200000D03*
X135600000Y-107400000D03*
X134600000Y-107200000D03*
D14*
X134600000Y-107200000D03*
D13*
X134600000Y-107200000D03*
X134600000Y-107200000D03*
X138600000Y-111000000D03*
X134600000Y-107200000D03*
X134600000Y-107200000D03*
X134600000Y-107200000D03*
X134600000Y-107200000D03*
X139400000Y-104200000D03*
X132400000Y-109600000D03*
X133000000Y-107200000D03*
X134600000Y-107200000D03*
X130200000Y-104400000D03*
D14*
X134600000Y-107200000D03*
D13*
X131000000Y-110600000D03*
D14*
X134600000Y-107200000D03*
X134600000Y-107200000D03*
D13*
X135200000Y-108600000D03*
X134600000Y-107200000D03*
X134400000Y-107400000D03*
D14*
X134600000Y-107200000D03*
D13*
X134400000Y-107400000D03*
X138200000Y-105400000D03*
X130200000Y-106400000D03*
D14*
X134600000Y-107200000D03*
D13*
X139400000Y-105450000D03*
X138700000Y-105900000D03*
X139400000Y-109200000D03*
X131200000Y-109600000D03*
X134600000Y-107200000D03*
X134400000Y-108600000D03*
X139600000Y-109800000D03*
X138400000Y-104400000D03*
X134600000Y-107200000D03*
X134600000Y-107200000D03*
X136600000Y-106400000D03*
X135200000Y-109400000D03*
X137200000Y-107400000D03*
X134600000Y-107200000D03*
X131200000Y-105400000D03*
X130200000Y-109400000D03*
X136200000Y-110600000D03*
D14*
X134600000Y-107200000D03*
X134600000Y-107200000D03*
D13*
X134600000Y-107200000D03*
X134600000Y-107200000D03*
X132000000Y-107600000D03*
D14*
X134600000Y-107200000D03*
D13*
X134600000Y-107200000D03*
D14*
X134600000Y-107200000D03*
D13*
X134400000Y-104800000D03*
X134400000Y-110600000D03*
X134200000Y-106400000D03*
D14*
X134600000Y-107200000D03*
D13*
X134600000Y-107200000D03*
X134600000Y-107200000D03*
X134400000Y-110600000D03*
D14*
X134600000Y-107200000D03*
D13*
X134600000Y-107200000D03*
X136800000Y-104000000D03*
X134400000Y-109400000D03*
X137000000Y-109400000D03*
X131800000Y-110600000D03*
D14*
X134600000Y-107200000D03*
D13*
X134600000Y-107200000D03*
X136600000Y-107400000D03*
X136400000Y-105600000D03*
D14*
X134600000Y-107200000D03*
D13*
X134600000Y-107200000D03*
X134600000Y-107200000D03*
X134600000Y-107200000D03*
D14*
X134600000Y-107200000D03*
X134600000Y-107200000D03*
D13*
X137800000Y-103600000D03*
X134600000Y-107200000D03*
X134400000Y-107400000D03*
X136400000Y-104800000D03*
X133000000Y-104800000D03*
X133000000Y-106200000D03*
D14*
X134600000Y-107200000D03*
D13*
X136800000Y-104000000D03*
X134600000Y-107200000D03*
X136000000Y-109400000D03*
X134600000Y-107200000D03*
X138200000Y-108200000D03*
X139200000Y-108200000D03*
D14*
X134600000Y-107200000D03*
D13*
X134600000Y-107200000D03*
X135200000Y-110600000D03*
X134600000Y-107200000D03*
X130200000Y-107400000D03*
X138000000Y-110600000D03*
X139400000Y-107600000D03*
D14*
X136000000Y-107400000D03*
D13*
X136800000Y-104000000D03*
D14*
X138600000Y-110800000D03*
D13*
X134600000Y-107200000D03*
X133400000Y-110600000D03*
D14*
X134600000Y-107200000D03*
X134600000Y-107200000D03*
D13*
X137000000Y-110600000D03*
X134600000Y-107200000D03*
D14*
X134600000Y-107200000D03*
D13*
X137800000Y-103600000D03*
X134600000Y-107200000D03*
X134600000Y-107200000D03*
X133400000Y-109400000D03*
D14*
X134600000Y-107200000D03*
D13*
X134600000Y-107200000D03*
X138200000Y-109400000D03*
X134600000Y-107200000D03*
D14*
X134600000Y-107200000D03*
D13*
X134600000Y-107200000D03*
D14*
X134400000Y-110800000D03*
D13*
X134600000Y-107200000D03*
X132800000Y-103400000D03*
D14*
X134600000Y-107200000D03*
D13*
X131000000Y-104000000D03*
X134600000Y-107200000D03*
X130200000Y-108400000D03*
X134600000Y-107200000D03*
X134600000Y-107200000D03*
X135600000Y-106800000D03*
D14*
X134600000Y-107200000D03*
D13*
X134600000Y-107200000D03*
X134600000Y-107200000D03*
X134600000Y-107200000D03*
X135400000Y-104800000D03*
X134600000Y-107200000D03*
X134400000Y-103400000D03*
X134600000Y-107200000D03*
X130200000Y-105400000D03*
X134600000Y-107200000D03*
X134600000Y-107200000D03*
D14*
X134600000Y-107200000D03*
D13*
X136600000Y-107400000D03*
X134600000Y-107200000D03*
X134600000Y-107200000D03*
X134400000Y-107400000D03*
X134600000Y-107200000D03*
D14*
X134600000Y-107200000D03*
X134600000Y-107200000D03*
X134600000Y-107200000D03*
D13*
X134600000Y-107200000D03*
X139400000Y-106600000D03*
X131800000Y-106800000D03*
X137800000Y-104400000D03*
X134600000Y-107200000D03*
X137200000Y-105400000D03*
X134400000Y-105600000D03*
X134600000Y-107200000D03*
D14*
X134600000Y-107200000D03*
D13*
X136000000Y-103400000D03*
X134400000Y-107400000D03*
X134600000Y-107200000D03*
X134600000Y-107200000D03*
X134600000Y-107200000D03*
X134400000Y-107400000D03*
D14*
X134400000Y-110800000D03*
D13*
X131600000Y-108600000D03*
X134600000Y-107200000D03*
D14*
X134600000Y-107200000D03*
D13*
X131200000Y-107000000D03*
X134600000Y-107200000D03*
X134600000Y-107200000D03*
D14*
X134600000Y-107200000D03*
D13*
X134600000Y-107200000D03*
X134600000Y-107200000D03*
D14*
X134600000Y-107200000D03*
D13*
X133400000Y-108400000D03*
X134600000Y-107200000D03*
X132800000Y-110600000D03*
X134600000Y-107200000D03*
X134600000Y-107200000D03*
D14*
%TO.N,Net-(VR1-FB)*%
X140200000Y-119200000D03*
%TD*%
D15*
%TO.N,Net-(VR1-FB)*%
X140680000Y-119200000D02*
X146080000Y-124600000D01*
X140200000Y-119200000D02*
X140680000Y-119200000D01*
%TD*%
%TA.AperFunction,Conductor*%
%TO.N,GND*%
G36*
X164200171Y-99720185D02*
G01*
X164245926Y-99772989D01*
X164256421Y-99837756D01*
X164249500Y-99902118D01*
X164249500Y-101697870D01*
X164249501Y-101697876D01*
X164255908Y-101757483D01*
X164306202Y-101892328D01*
X164306206Y-101892335D01*
X164392452Y-102007544D01*
X164392455Y-102007547D01*
X164507664Y-102093793D01*
X164507671Y-102093797D01*
X164642517Y-102144091D01*
X164642516Y-102144091D01*
X164649444Y-102144835D01*
X164702127Y-102150500D01*
X166497872Y-102150499D01*
X166557483Y-102144091D01*
X166692331Y-102093796D01*
X166701186Y-102087166D01*
X166766649Y-102062747D01*
X166834923Y-102077596D01*
X166884330Y-102127000D01*
X166899500Y-102186431D01*
X166899500Y-126214192D01*
X166879815Y-126281231D01*
X166827011Y-126326986D01*
X166757853Y-126336930D01*
X166701190Y-126313460D01*
X166692088Y-126306646D01*
X166692086Y-126306645D01*
X166557379Y-126256403D01*
X166557372Y-126256401D01*
X166497844Y-126250000D01*
X165850000Y-126250000D01*
X165850000Y-127166988D01*
X165792993Y-127134075D01*
X165665826Y-127100000D01*
X165534174Y-127100000D01*
X165407007Y-127134075D01*
X165350000Y-127166988D01*
X165350000Y-126250000D01*
X164702155Y-126250000D01*
X164642627Y-126256401D01*
X164642620Y-126256403D01*
X164507913Y-126306645D01*
X164507906Y-126306649D01*
X164392812Y-126392809D01*
X164392809Y-126392812D01*
X164306649Y-126507906D01*
X164306645Y-126507913D01*
X164256403Y-126642620D01*
X164256401Y-126642627D01*
X164250000Y-126702155D01*
X164250000Y-127350000D01*
X165166988Y-127350000D01*
X165134075Y-127407007D01*
X165100000Y-127534174D01*
X165100000Y-127665826D01*
X165134075Y-127792993D01*
X165166988Y-127850000D01*
X164250000Y-127850000D01*
X164250000Y-128497844D01*
X164256925Y-128562244D01*
X164244520Y-128631004D01*
X164196910Y-128682141D01*
X164133636Y-128699500D01*
X119866364Y-128699500D01*
X119799325Y-128679815D01*
X119753570Y-128627011D01*
X119743075Y-128562244D01*
X119749999Y-128497844D01*
X119750000Y-128497827D01*
X119750000Y-127850000D01*
X118833012Y-127850000D01*
X118865925Y-127792993D01*
X118900000Y-127665826D01*
X118900000Y-127534174D01*
X118865925Y-127407007D01*
X118833012Y-127350000D01*
X119750000Y-127350000D01*
X119750000Y-126702172D01*
X119749999Y-126702155D01*
X119743598Y-126642627D01*
X119743596Y-126642620D01*
X119693354Y-126507913D01*
X119693350Y-126507906D01*
X119607190Y-126392812D01*
X119607187Y-126392809D01*
X119492093Y-126306649D01*
X119492086Y-126306645D01*
X119357379Y-126256403D01*
X119357372Y-126256401D01*
X119297844Y-126250000D01*
X118650000Y-126250000D01*
X118650000Y-127166988D01*
X118592993Y-127134075D01*
X118465826Y-127100000D01*
X118334174Y-127100000D01*
X118207007Y-127134075D01*
X118150000Y-127166988D01*
X118150000Y-126250000D01*
X117502155Y-126250000D01*
X117437756Y-126256925D01*
X117368996Y-126244520D01*
X117317859Y-126196910D01*
X117300500Y-126133636D01*
X117300500Y-119298543D01*
X139199499Y-119298543D01*
X139237947Y-119491829D01*
X139237950Y-119491839D01*
X139313364Y-119673907D01*
X139313371Y-119673920D01*
X139422860Y-119837781D01*
X139422863Y-119837785D01*
X139562214Y-119977136D01*
X139562218Y-119977139D01*
X139726079Y-120086628D01*
X139726092Y-120086635D01*
X139908160Y-120162049D01*
X139908165Y-120162051D01*
X139908169Y-120162051D01*
X139908170Y-120162052D01*
X140101456Y-120200500D01*
X140101459Y-120200500D01*
X140214218Y-120200500D01*
X140281257Y-120220185D01*
X140301899Y-120236819D01*
X143277491Y-123212411D01*
X143310976Y-123273734D01*
X143305992Y-123343426D01*
X143264120Y-123399359D01*
X143228128Y-123418023D01*
X143071493Y-123468916D01*
X142900318Y-123556135D01*
X142811645Y-123620560D01*
X142744898Y-123669055D01*
X142744896Y-123669057D01*
X142744895Y-123669057D01*
X142609057Y-123804895D01*
X142609057Y-123804896D01*
X142609055Y-123804898D01*
X142560560Y-123871645D01*
X142496135Y-123960318D01*
X142408916Y-124131493D01*
X142387931Y-124196081D01*
X142348494Y-124253756D01*
X142284135Y-124280955D01*
X142215289Y-124269041D01*
X142163813Y-124221797D01*
X142152069Y-124196081D01*
X142131083Y-124131493D01*
X142043864Y-123960318D01*
X141930945Y-123804898D01*
X141795102Y-123669055D01*
X141639681Y-123556135D01*
X141468506Y-123468916D01*
X141285802Y-123409553D01*
X141190928Y-123394526D01*
X141096055Y-123379500D01*
X140903945Y-123379500D01*
X140840696Y-123389517D01*
X140714197Y-123409553D01*
X140531493Y-123468916D01*
X140360318Y-123556135D01*
X140271645Y-123620560D01*
X140204898Y-123669055D01*
X140204896Y-123669057D01*
X140204895Y-123669057D01*
X140069057Y-123804895D01*
X140069057Y-123804896D01*
X140069055Y-123804898D01*
X140020560Y-123871645D01*
X139956135Y-123960318D01*
X139868916Y-124131493D01*
X139809553Y-124314197D01*
X139779500Y-124503945D01*
X139779500Y-124696054D01*
X139809553Y-124885802D01*
X139868916Y-125068506D01*
X139868918Y-125068509D01*
X139956135Y-125239681D01*
X140069055Y-125395102D01*
X140204898Y-125530945D01*
X140360319Y-125643865D01*
X140531491Y-125731082D01*
X140531493Y-125731083D01*
X140622845Y-125760764D01*
X140714199Y-125790447D01*
X140903945Y-125820500D01*
X140903946Y-125820500D01*
X141096054Y-125820500D01*
X141096055Y-125820500D01*
X141285801Y-125790447D01*
X141468509Y-125731082D01*
X141639681Y-125643865D01*
X141795102Y-125530945D01*
X141930945Y-125395102D01*
X142043865Y-125239681D01*
X142131082Y-125068509D01*
X142152068Y-125003921D01*
X142152069Y-125003919D01*
X142191506Y-124946243D01*
X142255864Y-124919044D01*
X142324711Y-124930958D01*
X142376187Y-124978202D01*
X142387931Y-125003919D01*
X142408915Y-125068504D01*
X142408918Y-125068509D01*
X142496135Y-125239681D01*
X142609055Y-125395102D01*
X142744898Y-125530945D01*
X142900319Y-125643865D01*
X143071491Y-125731082D01*
X143071493Y-125731083D01*
X143162845Y-125760764D01*
X143254199Y-125790447D01*
X143443945Y-125820500D01*
X143443946Y-125820500D01*
X143636054Y-125820500D01*
X143636055Y-125820500D01*
X143825801Y-125790447D01*
X144008509Y-125731082D01*
X144179681Y-125643865D01*
X144335102Y-125530945D01*
X144470945Y-125395102D01*
X144583865Y-125239681D01*
X144671082Y-125068509D01*
X144692068Y-125003918D01*
X144731504Y-124946245D01*
X144795862Y-124919045D01*
X144864709Y-124930959D01*
X144916185Y-124978202D01*
X144927930Y-125003918D01*
X144948916Y-125068504D01*
X144948918Y-125068509D01*
X145036135Y-125239681D01*
X145149055Y-125395102D01*
X145284898Y-125530945D01*
X145440319Y-125643865D01*
X145611491Y-125731082D01*
X145611493Y-125731083D01*
X145702845Y-125760764D01*
X145794199Y-125790447D01*
X145983945Y-125820500D01*
X145983946Y-125820500D01*
X146176054Y-125820500D01*
X146176055Y-125820500D01*
X146365801Y-125790447D01*
X146548509Y-125731082D01*
X146719681Y-125643865D01*
X146875102Y-125530945D01*
X147010945Y-125395102D01*
X147123865Y-125239681D01*
X147211082Y-125068509D01*
X147270447Y-124885801D01*
X147300500Y-124696055D01*
X147300500Y-124503945D01*
X147270447Y-124314199D01*
X147240424Y-124221797D01*
X147211083Y-124131493D01*
X147123864Y-123960318D01*
X147010945Y-123804898D01*
X146875102Y-123669055D01*
X146719681Y-123556135D01*
X146548506Y-123468916D01*
X146365806Y-123409554D01*
X146365802Y-123409553D01*
X146365801Y-123409553D01*
X146354560Y-123407772D01*
X146332721Y-123404313D01*
X146269587Y-123374382D01*
X146264441Y-123369521D01*
X141461479Y-118566559D01*
X141461459Y-118566537D01*
X141317785Y-118422863D01*
X141317781Y-118422860D01*
X141153920Y-118313371D01*
X141153911Y-118313366D01*
X141076614Y-118281349D01*
X141025165Y-118260038D01*
X140971836Y-118237949D01*
X140971832Y-118237948D01*
X140971828Y-118237946D01*
X140875188Y-118218724D01*
X140778544Y-118199500D01*
X140778541Y-118199500D01*
X140101459Y-118199500D01*
X140101457Y-118199500D01*
X139908170Y-118237947D01*
X139908160Y-118237950D01*
X139726092Y-118313364D01*
X139726079Y-118313371D01*
X139562218Y-118422860D01*
X139562214Y-118422863D01*
X139422863Y-118562214D01*
X139422860Y-118562218D01*
X139313371Y-118726079D01*
X139313364Y-118726092D01*
X139237950Y-118908160D01*
X139237947Y-118908170D01*
X139199500Y-119101456D01*
X139199500Y-119101459D01*
X139199500Y-119298541D01*
X139199500Y-119298543D01*
X139199499Y-119298543D01*
X117300500Y-119298543D01*
X117300500Y-117497648D01*
X158149500Y-117497648D01*
X158149500Y-117702351D01*
X158181522Y-117904534D01*
X158244781Y-118099223D01*
X158295876Y-118199500D01*
X158337585Y-118281359D01*
X158337715Y-118281613D01*
X158458028Y-118447213D01*
X158602786Y-118591971D01*
X158723226Y-118679474D01*
X158768390Y-118712287D01*
X158884607Y-118771503D01*
X158950776Y-118805218D01*
X158950778Y-118805218D01*
X158950781Y-118805220D01*
X159055137Y-118839127D01*
X159145465Y-118868477D01*
X159246557Y-118884488D01*
X159347648Y-118900500D01*
X159347649Y-118900500D01*
X159552351Y-118900500D01*
X159552352Y-118900500D01*
X159754534Y-118868477D01*
X159949219Y-118805220D01*
X160131610Y-118712287D01*
X160224590Y-118644732D01*
X160297213Y-118591971D01*
X160297215Y-118591968D01*
X160297219Y-118591966D01*
X160441966Y-118447219D01*
X160441968Y-118447215D01*
X160441971Y-118447213D01*
X160494732Y-118374590D01*
X160562287Y-118281610D01*
X160655220Y-118099219D01*
X160718477Y-117904534D01*
X160750500Y-117702352D01*
X160750500Y-117497682D01*
X161650000Y-117497682D01*
X161650000Y-117702317D01*
X161682009Y-117904417D01*
X161745244Y-118099031D01*
X161838141Y-118281350D01*
X161838147Y-118281359D01*
X161870523Y-118325921D01*
X161870524Y-118325922D01*
X162550000Y-117646446D01*
X162550000Y-117652661D01*
X162577259Y-117754394D01*
X162629920Y-117845606D01*
X162704394Y-117920080D01*
X162795606Y-117972741D01*
X162897339Y-118000000D01*
X162903553Y-118000000D01*
X162224076Y-118679474D01*
X162268650Y-118711859D01*
X162450968Y-118804755D01*
X162645582Y-118867990D01*
X162847683Y-118900000D01*
X163052317Y-118900000D01*
X163254417Y-118867990D01*
X163449031Y-118804755D01*
X163631349Y-118711859D01*
X163675921Y-118679474D01*
X162996447Y-118000000D01*
X163002661Y-118000000D01*
X163104394Y-117972741D01*
X163195606Y-117920080D01*
X163270080Y-117845606D01*
X163322741Y-117754394D01*
X163350000Y-117652661D01*
X163350000Y-117646447D01*
X164029474Y-118325921D01*
X164061859Y-118281349D01*
X164154755Y-118099031D01*
X164217990Y-117904417D01*
X164250000Y-117702317D01*
X164250000Y-117497682D01*
X164217990Y-117295582D01*
X164154755Y-117100968D01*
X164061859Y-116918650D01*
X164029474Y-116874077D01*
X164029474Y-116874076D01*
X163350000Y-117553551D01*
X163350000Y-117547339D01*
X163322741Y-117445606D01*
X163270080Y-117354394D01*
X163195606Y-117279920D01*
X163104394Y-117227259D01*
X163002661Y-117200000D01*
X162996446Y-117200000D01*
X163675922Y-116520524D01*
X163675921Y-116520523D01*
X163631359Y-116488147D01*
X163631350Y-116488141D01*
X163449031Y-116395244D01*
X163254417Y-116332009D01*
X163052317Y-116300000D01*
X162847683Y-116300000D01*
X162645582Y-116332009D01*
X162450968Y-116395244D01*
X162268644Y-116488143D01*
X162224077Y-116520523D01*
X162224077Y-116520524D01*
X162903554Y-117200000D01*
X162897339Y-117200000D01*
X162795606Y-117227259D01*
X162704394Y-117279920D01*
X162629920Y-117354394D01*
X162577259Y-117445606D01*
X162550000Y-117547339D01*
X162550000Y-117553553D01*
X161870524Y-116874077D01*
X161870523Y-116874077D01*
X161838143Y-116918644D01*
X161745244Y-117100968D01*
X161682009Y-117295582D01*
X161650000Y-117497682D01*
X160750500Y-117497682D01*
X160750500Y-117497648D01*
X160742257Y-117445606D01*
X160718477Y-117295465D01*
X160687458Y-117200000D01*
X160655220Y-117100781D01*
X160655218Y-117100778D01*
X160655218Y-117100776D01*
X160562419Y-116918650D01*
X160562287Y-116918390D01*
X160530092Y-116874077D01*
X160441971Y-116752786D01*
X160297213Y-116608028D01*
X160131613Y-116487715D01*
X160131612Y-116487714D01*
X160131610Y-116487713D01*
X160074653Y-116458691D01*
X159949223Y-116394781D01*
X159754534Y-116331522D01*
X159579995Y-116303878D01*
X159552352Y-116299500D01*
X159347648Y-116299500D01*
X159323329Y-116303351D01*
X159145465Y-116331522D01*
X158950776Y-116394781D01*
X158768386Y-116487715D01*
X158602786Y-116608028D01*
X158458028Y-116752786D01*
X158337715Y-116918386D01*
X158244781Y-117100776D01*
X158181522Y-117295465D01*
X158149500Y-117497648D01*
X117300500Y-117497648D01*
X117300500Y-108297648D01*
X120549500Y-108297648D01*
X120549500Y-108502352D01*
X120553878Y-108529995D01*
X120581522Y-108704534D01*
X120644781Y-108899223D01*
X120708691Y-109024653D01*
X120737585Y-109081359D01*
X120737715Y-109081613D01*
X120858028Y-109247213D01*
X121002786Y-109391971D01*
X121123226Y-109479474D01*
X121168390Y-109512287D01*
X121284607Y-109571503D01*
X121350776Y-109605218D01*
X121350778Y-109605218D01*
X121350781Y-109605220D01*
X121455137Y-109639127D01*
X121545465Y-109668477D01*
X121600811Y-109677243D01*
X121747648Y-109700500D01*
X121747649Y-109700500D01*
X121952351Y-109700500D01*
X121952352Y-109700500D01*
X122154534Y-109668477D01*
X122349219Y-109605220D01*
X122531610Y-109512287D01*
X122624590Y-109444732D01*
X122697213Y-109391971D01*
X122697215Y-109391968D01*
X122697219Y-109391966D01*
X122841966Y-109247219D01*
X122841968Y-109247215D01*
X122841971Y-109247213D01*
X122894732Y-109174590D01*
X122962287Y-109081610D01*
X123055220Y-108899219D01*
X123118477Y-108704534D01*
X123150500Y-108502352D01*
X123150500Y-108297682D01*
X124050000Y-108297682D01*
X124050000Y-108502317D01*
X124082009Y-108704417D01*
X124145244Y-108899031D01*
X124238141Y-109081350D01*
X124238147Y-109081359D01*
X124270523Y-109125921D01*
X124270524Y-109125922D01*
X124950000Y-108446446D01*
X124950000Y-108452661D01*
X124977259Y-108554394D01*
X125029920Y-108645606D01*
X125104394Y-108720080D01*
X125195606Y-108772741D01*
X125297339Y-108800000D01*
X125303553Y-108800000D01*
X124624076Y-109479474D01*
X124668650Y-109511859D01*
X124850968Y-109604755D01*
X125045582Y-109667990D01*
X125247683Y-109700000D01*
X125452317Y-109700000D01*
X125654417Y-109667990D01*
X125849031Y-109604755D01*
X126031349Y-109511859D01*
X126075921Y-109479474D01*
X125396447Y-108800000D01*
X125402661Y-108800000D01*
X125504394Y-108772741D01*
X125595606Y-108720080D01*
X125670080Y-108645606D01*
X125722741Y-108554394D01*
X125750000Y-108452661D01*
X125750000Y-108446447D01*
X126429474Y-109125921D01*
X126461859Y-109081349D01*
X126554755Y-108899031D01*
X126617990Y-108704417D01*
X126650000Y-108502317D01*
X126650000Y-108297682D01*
X126617990Y-108095582D01*
X126554755Y-107900968D01*
X126461859Y-107718650D01*
X126429474Y-107674077D01*
X126429474Y-107674076D01*
X125750000Y-108353551D01*
X125750000Y-108347339D01*
X125722741Y-108245606D01*
X125670080Y-108154394D01*
X125595606Y-108079920D01*
X125504394Y-108027259D01*
X125402661Y-108000000D01*
X125396446Y-108000000D01*
X126075922Y-107320524D01*
X126075921Y-107320523D01*
X126031359Y-107288147D01*
X126031350Y-107288141D01*
X125849031Y-107195244D01*
X125654417Y-107132009D01*
X125452317Y-107100000D01*
X125247683Y-107100000D01*
X125045582Y-107132009D01*
X124850968Y-107195244D01*
X124668644Y-107288143D01*
X124624077Y-107320523D01*
X124624077Y-107320524D01*
X125303554Y-108000000D01*
X125297339Y-108000000D01*
X125195606Y-108027259D01*
X125104394Y-108079920D01*
X125029920Y-108154394D01*
X124977259Y-108245606D01*
X124950000Y-108347339D01*
X124950000Y-108353553D01*
X124270524Y-107674077D01*
X124270523Y-107674077D01*
X124238143Y-107718644D01*
X124145244Y-107900968D01*
X124082009Y-108095582D01*
X124050000Y-108297682D01*
X123150500Y-108297682D01*
X123150500Y-108297648D01*
X123128124Y-108156376D01*
X123118477Y-108095465D01*
X123071137Y-107949769D01*
X123055220Y-107900781D01*
X123055218Y-107900778D01*
X123055218Y-107900776D01*
X122962419Y-107718650D01*
X122962287Y-107718390D01*
X122930092Y-107674077D01*
X122841971Y-107552786D01*
X122697213Y-107408028D01*
X122531613Y-107287715D01*
X122531612Y-107287714D01*
X122531610Y-107287713D01*
X122474653Y-107258691D01*
X122349223Y-107194781D01*
X122154534Y-107131522D01*
X121979995Y-107103878D01*
X121952352Y-107099500D01*
X121747648Y-107099500D01*
X121723329Y-107103351D01*
X121545465Y-107131522D01*
X121350776Y-107194781D01*
X121168386Y-107287715D01*
X121002786Y-107408028D01*
X120858028Y-107552786D01*
X120737715Y-107718386D01*
X120644781Y-107900776D01*
X120581522Y-108095465D01*
X120550139Y-108293616D01*
X120549500Y-108297648D01*
X117300500Y-108297648D01*
X117300500Y-103106379D01*
X129249500Y-103106379D01*
X129249500Y-103293620D01*
X129286025Y-103477243D01*
X129286027Y-103477251D01*
X129357677Y-103650230D01*
X129411719Y-103731109D01*
X129432597Y-103797787D01*
X129414112Y-103865167D01*
X129411719Y-103868891D01*
X129357677Y-103949769D01*
X129286027Y-104122748D01*
X129286025Y-104122756D01*
X129249500Y-104306379D01*
X129249500Y-104493620D01*
X129286025Y-104677243D01*
X129286027Y-104677251D01*
X129358637Y-104852547D01*
X129366106Y-104922017D01*
X129358637Y-104947453D01*
X129286027Y-105122748D01*
X129286025Y-105122756D01*
X129249500Y-105306379D01*
X129249500Y-105493620D01*
X129286025Y-105677243D01*
X129286027Y-105677251D01*
X129358637Y-105852547D01*
X129366106Y-105922017D01*
X129358637Y-105947453D01*
X129286027Y-106122748D01*
X129286025Y-106122756D01*
X129249500Y-106306379D01*
X129249500Y-106493620D01*
X129286025Y-106677243D01*
X129286027Y-106677251D01*
X129358637Y-106852547D01*
X129366106Y-106922017D01*
X129358637Y-106947453D01*
X129286027Y-107122748D01*
X129286025Y-107122756D01*
X129249500Y-107306379D01*
X129249500Y-107493620D01*
X129286025Y-107677243D01*
X129286027Y-107677251D01*
X129358637Y-107852547D01*
X129366106Y-107922017D01*
X129358637Y-107947453D01*
X129286027Y-108122748D01*
X129286025Y-108122756D01*
X129249500Y-108306379D01*
X129249500Y-108493620D01*
X129286025Y-108677243D01*
X129286027Y-108677251D01*
X129358637Y-108852547D01*
X129366106Y-108922017D01*
X129358637Y-108947453D01*
X129286027Y-109122748D01*
X129286025Y-109122756D01*
X129249500Y-109306379D01*
X129249500Y-109493620D01*
X129286025Y-109677243D01*
X129286027Y-109677251D01*
X129357677Y-109850230D01*
X129411719Y-109931109D01*
X129432597Y-109997787D01*
X129414112Y-110065167D01*
X129411719Y-110068891D01*
X129357677Y-110149769D01*
X129286027Y-110322748D01*
X129286025Y-110322756D01*
X129249500Y-110506379D01*
X129249500Y-110693620D01*
X129286025Y-110877243D01*
X129286027Y-110877251D01*
X129357676Y-111050228D01*
X129357681Y-111050237D01*
X129461697Y-111205907D01*
X129461700Y-111205911D01*
X129594088Y-111338299D01*
X129594092Y-111338302D01*
X129749762Y-111442318D01*
X129749771Y-111442323D01*
X129788956Y-111458554D01*
X129922749Y-111513973D01*
X130106379Y-111550499D01*
X130106383Y-111550500D01*
X130106384Y-111550500D01*
X130293617Y-111550500D01*
X130293618Y-111550499D01*
X130477251Y-111513973D01*
X130552547Y-111482783D01*
X130622015Y-111475314D01*
X130647451Y-111482783D01*
X130668389Y-111491456D01*
X130722743Y-111513971D01*
X130722745Y-111513971D01*
X130722749Y-111513973D01*
X130906379Y-111550499D01*
X130906383Y-111550500D01*
X130906384Y-111550500D01*
X131093617Y-111550500D01*
X131093618Y-111550499D01*
X131277251Y-111513973D01*
X131352547Y-111482783D01*
X131422015Y-111475314D01*
X131447451Y-111482783D01*
X131468389Y-111491456D01*
X131522743Y-111513971D01*
X131522745Y-111513971D01*
X131522749Y-111513973D01*
X131706379Y-111550499D01*
X131706383Y-111550500D01*
X131706384Y-111550500D01*
X131893617Y-111550500D01*
X131893618Y-111550499D01*
X132077251Y-111513973D01*
X132250231Y-111442322D01*
X132250233Y-111442320D01*
X132252547Y-111441362D01*
X132322016Y-111433893D01*
X132347453Y-111441362D01*
X132349766Y-111442320D01*
X132349769Y-111442322D01*
X132522749Y-111513973D01*
X132706379Y-111550499D01*
X132706383Y-111550500D01*
X132706384Y-111550500D01*
X132893617Y-111550500D01*
X132893617Y-111550499D01*
X133021668Y-111525029D01*
X133075809Y-111514260D01*
X133124191Y-111514260D01*
X133201598Y-111529657D01*
X133306381Y-111550499D01*
X133306383Y-111550500D01*
X133306384Y-111550500D01*
X133493617Y-111550500D01*
X133493618Y-111550499D01*
X133677251Y-111513973D01*
X133832339Y-111449732D01*
X133901807Y-111442264D01*
X133948679Y-111461190D01*
X134020821Y-111509394D01*
X134020823Y-111509395D01*
X134020827Y-111509397D01*
X134166498Y-111569735D01*
X134166503Y-111569737D01*
X134321153Y-111600499D01*
X134321156Y-111600500D01*
X134321158Y-111600500D01*
X134478844Y-111600500D01*
X134478845Y-111600499D01*
X134633497Y-111569737D01*
X134779179Y-111509394D01*
X134779184Y-111509390D01*
X134784552Y-111506522D01*
X134785822Y-111508899D01*
X134841331Y-111491456D01*
X134891124Y-111500873D01*
X134922749Y-111513973D01*
X135106379Y-111550499D01*
X135106383Y-111550500D01*
X135106384Y-111550500D01*
X135293617Y-111550500D01*
X135293618Y-111550499D01*
X135477251Y-111513973D01*
X135650231Y-111442322D01*
X135650233Y-111442320D01*
X135652547Y-111441362D01*
X135722016Y-111433893D01*
X135747453Y-111441362D01*
X135749766Y-111442320D01*
X135749769Y-111442322D01*
X135922749Y-111513973D01*
X136106379Y-111550499D01*
X136106383Y-111550500D01*
X136106384Y-111550500D01*
X136293617Y-111550500D01*
X136293618Y-111550499D01*
X136477251Y-111513973D01*
X136552547Y-111482783D01*
X136622015Y-111475314D01*
X136647451Y-111482783D01*
X136668389Y-111491456D01*
X136722743Y-111513971D01*
X136722745Y-111513971D01*
X136722749Y-111513973D01*
X136906379Y-111550499D01*
X136906383Y-111550500D01*
X136906384Y-111550500D01*
X137093617Y-111550500D01*
X137093618Y-111550499D01*
X137277251Y-111513973D01*
X137450231Y-111442322D01*
X137450233Y-111442320D01*
X137452547Y-111441362D01*
X137522016Y-111433893D01*
X137547453Y-111441362D01*
X137549766Y-111442320D01*
X137549769Y-111442322D01*
X137722749Y-111513973D01*
X137761775Y-111521735D01*
X137823684Y-111554117D01*
X137840683Y-111574458D01*
X137854443Y-111595050D01*
X137861699Y-111605910D01*
X137994088Y-111738299D01*
X137994092Y-111738302D01*
X138149762Y-111842318D01*
X138149768Y-111842321D01*
X138149769Y-111842322D01*
X138322749Y-111913973D01*
X138506379Y-111950499D01*
X138506383Y-111950500D01*
X138506384Y-111950500D01*
X138693617Y-111950500D01*
X138693618Y-111950499D01*
X138877251Y-111913973D01*
X139050231Y-111842322D01*
X139205908Y-111738302D01*
X139338302Y-111605908D01*
X139359313Y-111574463D01*
X139412925Y-111529657D01*
X139438219Y-111521736D01*
X139477251Y-111513973D01*
X139650231Y-111442322D01*
X139805908Y-111338302D01*
X139938302Y-111205908D01*
X140042322Y-111050231D01*
X140113973Y-110877251D01*
X140150500Y-110693616D01*
X140150500Y-110641603D01*
X140170185Y-110574564D01*
X140201572Y-110542611D01*
X140201204Y-110542162D01*
X140205384Y-110538731D01*
X140205612Y-110538499D01*
X140205908Y-110538302D01*
X140338302Y-110405908D01*
X140442322Y-110250231D01*
X140513973Y-110077251D01*
X140550500Y-109893616D01*
X140550500Y-109706384D01*
X140513973Y-109522749D01*
X140442322Y-109349769D01*
X140438824Y-109344534D01*
X140371398Y-109243622D01*
X140350520Y-109176945D01*
X140350500Y-109174732D01*
X140350500Y-109106383D01*
X140350499Y-109106379D01*
X140345520Y-109081349D01*
X140313973Y-108922749D01*
X140251837Y-108772741D01*
X140242323Y-108749771D01*
X140242318Y-108749762D01*
X140138298Y-108594086D01*
X140136707Y-108592147D01*
X140136191Y-108590932D01*
X140134918Y-108589027D01*
X140135279Y-108588785D01*
X140109394Y-108527837D01*
X140113378Y-108483344D01*
X140112785Y-108483226D01*
X140113884Y-108477700D01*
X140113904Y-108477478D01*
X140113970Y-108477258D01*
X140113973Y-108477251D01*
X140150500Y-108293616D01*
X140150500Y-108225267D01*
X140170185Y-108158228D01*
X140171398Y-108156376D01*
X140193867Y-108122749D01*
X140242322Y-108050231D01*
X140313973Y-107877251D01*
X140350500Y-107693616D01*
X140350500Y-107506384D01*
X140313973Y-107322749D01*
X140242322Y-107149769D01*
X140242320Y-107149766D01*
X140241362Y-107147453D01*
X140233893Y-107077984D01*
X140241362Y-107052547D01*
X140242320Y-107050233D01*
X140242322Y-107050231D01*
X140313973Y-106877251D01*
X140350500Y-106693616D01*
X140350500Y-106506384D01*
X140313973Y-106322749D01*
X140242322Y-106149769D01*
X140242320Y-106149766D01*
X140241362Y-106147453D01*
X140233893Y-106077984D01*
X140241362Y-106052547D01*
X140242320Y-106050233D01*
X140242322Y-106050231D01*
X140313973Y-105877251D01*
X140350500Y-105693616D01*
X140350500Y-105506384D01*
X140350500Y-105356384D01*
X140313973Y-105172749D01*
X140242322Y-104999769D01*
X140242321Y-104999768D01*
X140242318Y-104999762D01*
X140171577Y-104893891D01*
X140150699Y-104827213D01*
X140169183Y-104759833D01*
X140171577Y-104756109D01*
X140242318Y-104650237D01*
X140242318Y-104650236D01*
X140242322Y-104650231D01*
X140313973Y-104477251D01*
X140350500Y-104293616D01*
X140350500Y-104106384D01*
X140313973Y-103922749D01*
X140242322Y-103749769D01*
X140242321Y-103749768D01*
X140242318Y-103749762D01*
X140138302Y-103594092D01*
X140138299Y-103594088D01*
X140005911Y-103461700D01*
X140005907Y-103461697D01*
X139850237Y-103357681D01*
X139850225Y-103357675D01*
X139827045Y-103348073D01*
X139772642Y-103304231D01*
X139750579Y-103237936D01*
X139750500Y-103233513D01*
X139750500Y-103106383D01*
X139750499Y-103106379D01*
X139739185Y-103049500D01*
X139713973Y-102922749D01*
X139642322Y-102749769D01*
X139642321Y-102749768D01*
X139642318Y-102749762D01*
X139538302Y-102594092D01*
X139538299Y-102594088D01*
X139405911Y-102461700D01*
X139405907Y-102461697D01*
X139250237Y-102357681D01*
X139250228Y-102357676D01*
X139077251Y-102286027D01*
X139077243Y-102286025D01*
X138893620Y-102249500D01*
X138893616Y-102249500D01*
X138706384Y-102249500D01*
X138706379Y-102249500D01*
X138522756Y-102286025D01*
X138522748Y-102286027D01*
X138349771Y-102357676D01*
X138349762Y-102357681D01*
X138194092Y-102461697D01*
X138194088Y-102461700D01*
X138061704Y-102594085D01*
X138061698Y-102594092D01*
X138055327Y-102603626D01*
X138001712Y-102648428D01*
X137932387Y-102657131D01*
X137928046Y-102656348D01*
X137893616Y-102649500D01*
X137706384Y-102649500D01*
X137706379Y-102649500D01*
X137522756Y-102686025D01*
X137522748Y-102686027D01*
X137349771Y-102757676D01*
X137349762Y-102757681D01*
X137194092Y-102861697D01*
X137194088Y-102861700D01*
X137061703Y-102994085D01*
X137059351Y-102996952D01*
X137057738Y-102998050D01*
X137057390Y-102998399D01*
X137057323Y-102998332D01*
X137001605Y-103036286D01*
X136931760Y-103038155D01*
X136871992Y-103001968D01*
X136848937Y-102965738D01*
X136842325Y-102949775D01*
X136842318Y-102949762D01*
X136738302Y-102794092D01*
X136738299Y-102794088D01*
X136605911Y-102661700D01*
X136605907Y-102661697D01*
X136450237Y-102557681D01*
X136450228Y-102557676D01*
X136277251Y-102486027D01*
X136277243Y-102486025D01*
X136093620Y-102449500D01*
X136093616Y-102449500D01*
X135906384Y-102449500D01*
X135906379Y-102449500D01*
X135722756Y-102486025D01*
X135722748Y-102486027D01*
X135549771Y-102557676D01*
X135549762Y-102557681D01*
X135394092Y-102661697D01*
X135394088Y-102661700D01*
X135287681Y-102768108D01*
X135226358Y-102801593D01*
X135156666Y-102796609D01*
X135112319Y-102768108D01*
X135005911Y-102661700D01*
X135005907Y-102661697D01*
X134850237Y-102557681D01*
X134850228Y-102557676D01*
X134677251Y-102486027D01*
X134677243Y-102486025D01*
X134493620Y-102449500D01*
X134493616Y-102449500D01*
X134306384Y-102449500D01*
X134306379Y-102449500D01*
X134122756Y-102486025D01*
X134122748Y-102486027D01*
X133949771Y-102557676D01*
X133949762Y-102557681D01*
X133794092Y-102661697D01*
X133794088Y-102661700D01*
X133687681Y-102768108D01*
X133626358Y-102801593D01*
X133556666Y-102796609D01*
X133512319Y-102768108D01*
X133405911Y-102661700D01*
X133405907Y-102661697D01*
X133250237Y-102557681D01*
X133250228Y-102557676D01*
X133077251Y-102486027D01*
X133077243Y-102486025D01*
X132893620Y-102449500D01*
X132893616Y-102449500D01*
X132706384Y-102449500D01*
X132706379Y-102449500D01*
X132522756Y-102486025D01*
X132522748Y-102486027D01*
X132347453Y-102558637D01*
X132277983Y-102566106D01*
X132252547Y-102558637D01*
X132077251Y-102486027D01*
X132077243Y-102486025D01*
X131893620Y-102449500D01*
X131893616Y-102449500D01*
X131706384Y-102449500D01*
X131706379Y-102449500D01*
X131522756Y-102486025D01*
X131522748Y-102486027D01*
X131349771Y-102557676D01*
X131349762Y-102557681D01*
X131194092Y-102661697D01*
X131194088Y-102661700D01*
X131174676Y-102681113D01*
X131113353Y-102714598D01*
X131043661Y-102709614D01*
X130987728Y-102667742D01*
X130983893Y-102662323D01*
X130938302Y-102594092D01*
X130938299Y-102594088D01*
X130805911Y-102461700D01*
X130805907Y-102461697D01*
X130650237Y-102357681D01*
X130650228Y-102357676D01*
X130477251Y-102286027D01*
X130477243Y-102286025D01*
X130293620Y-102249500D01*
X130293616Y-102249500D01*
X130106384Y-102249500D01*
X130106379Y-102249500D01*
X129922756Y-102286025D01*
X129922748Y-102286027D01*
X129749771Y-102357676D01*
X129749762Y-102357681D01*
X129594092Y-102461697D01*
X129594088Y-102461700D01*
X129461700Y-102594088D01*
X129461697Y-102594092D01*
X129357681Y-102749762D01*
X129357676Y-102749771D01*
X129286027Y-102922748D01*
X129286025Y-102922756D01*
X129249500Y-103106379D01*
X117300500Y-103106379D01*
X117300500Y-102266868D01*
X117320185Y-102199829D01*
X117372989Y-102154074D01*
X117437756Y-102143579D01*
X117442516Y-102144090D01*
X117442517Y-102144091D01*
X117502127Y-102150500D01*
X119297872Y-102150499D01*
X119357483Y-102144091D01*
X119492331Y-102093796D01*
X119607546Y-102007546D01*
X119693796Y-101892331D01*
X119744091Y-101757483D01*
X119750500Y-101697873D01*
X119750499Y-99902128D01*
X119744091Y-99842517D01*
X119743579Y-99837753D01*
X119755986Y-99768994D01*
X119803597Y-99717857D01*
X119866869Y-99700500D01*
X164133132Y-99700500D01*
X164200171Y-99720185D01*
G37*
%TD.AperFunction*%
%TD*%
M02*
