%TF.GenerationSoftware,KiCad,Pcbnew,9.0.3*%
%TF.CreationDate,2026-02-07T01:57:28+05:30*%
%TF.ProjectId,dc dc boost converter,64632064-6320-4626-9f6f-737420636f6e,rev?*%
%TF.SameCoordinates,Original*%
%TF.FileFunction,Legend,Top*%
%TF.FilePolarity,Positive*%
%FSLAX46Y46*%
G04 Gerber Fmt 4.6, Leading zero omitted, Abs format (unit mm)*
G04 Created by KiCad (PCBNEW 9.0.3) date 2026-02-07 01:57:28*
%MOMM*%
%LPD*%
G01*
G04 APERTURE LIST*
%ADD10C,0.200000*%
%ADD11C,0.100000*%
%ADD12C,0.150000*%
%ADD13C,0.120000*%
%ADD14C,0.127000*%
G04 APERTURE END LIST*
D10*
X152169673Y-122647331D02*
X152169673Y-121647331D01*
X152169673Y-121647331D02*
X152407768Y-121647331D01*
X152407768Y-121647331D02*
X152550625Y-121694950D01*
X152550625Y-121694950D02*
X152645863Y-121790188D01*
X152645863Y-121790188D02*
X152693482Y-121885426D01*
X152693482Y-121885426D02*
X152741101Y-122075902D01*
X152741101Y-122075902D02*
X152741101Y-122218759D01*
X152741101Y-122218759D02*
X152693482Y-122409235D01*
X152693482Y-122409235D02*
X152645863Y-122504473D01*
X152645863Y-122504473D02*
X152550625Y-122599712D01*
X152550625Y-122599712D02*
X152407768Y-122647331D01*
X152407768Y-122647331D02*
X152169673Y-122647331D01*
X153741101Y-122552092D02*
X153693482Y-122599712D01*
X153693482Y-122599712D02*
X153550625Y-122647331D01*
X153550625Y-122647331D02*
X153455387Y-122647331D01*
X153455387Y-122647331D02*
X153312530Y-122599712D01*
X153312530Y-122599712D02*
X153217292Y-122504473D01*
X153217292Y-122504473D02*
X153169673Y-122409235D01*
X153169673Y-122409235D02*
X153122054Y-122218759D01*
X153122054Y-122218759D02*
X153122054Y-122075902D01*
X153122054Y-122075902D02*
X153169673Y-121885426D01*
X153169673Y-121885426D02*
X153217292Y-121790188D01*
X153217292Y-121790188D02*
X153312530Y-121694950D01*
X153312530Y-121694950D02*
X153455387Y-121647331D01*
X153455387Y-121647331D02*
X153550625Y-121647331D01*
X153550625Y-121647331D02*
X153693482Y-121694950D01*
X153693482Y-121694950D02*
X153741101Y-121742569D01*
X154931578Y-122647331D02*
X154931578Y-121647331D01*
X154931578Y-121647331D02*
X155169673Y-121647331D01*
X155169673Y-121647331D02*
X155312530Y-121694950D01*
X155312530Y-121694950D02*
X155407768Y-121790188D01*
X155407768Y-121790188D02*
X155455387Y-121885426D01*
X155455387Y-121885426D02*
X155503006Y-122075902D01*
X155503006Y-122075902D02*
X155503006Y-122218759D01*
X155503006Y-122218759D02*
X155455387Y-122409235D01*
X155455387Y-122409235D02*
X155407768Y-122504473D01*
X155407768Y-122504473D02*
X155312530Y-122599712D01*
X155312530Y-122599712D02*
X155169673Y-122647331D01*
X155169673Y-122647331D02*
X154931578Y-122647331D01*
X156503006Y-122552092D02*
X156455387Y-122599712D01*
X156455387Y-122599712D02*
X156312530Y-122647331D01*
X156312530Y-122647331D02*
X156217292Y-122647331D01*
X156217292Y-122647331D02*
X156074435Y-122599712D01*
X156074435Y-122599712D02*
X155979197Y-122504473D01*
X155979197Y-122504473D02*
X155931578Y-122409235D01*
X155931578Y-122409235D02*
X155883959Y-122218759D01*
X155883959Y-122218759D02*
X155883959Y-122075902D01*
X155883959Y-122075902D02*
X155931578Y-121885426D01*
X155931578Y-121885426D02*
X155979197Y-121790188D01*
X155979197Y-121790188D02*
X156074435Y-121694950D01*
X156074435Y-121694950D02*
X156217292Y-121647331D01*
X156217292Y-121647331D02*
X156312530Y-121647331D01*
X156312530Y-121647331D02*
X156455387Y-121694950D01*
X156455387Y-121694950D02*
X156503006Y-121742569D01*
X152503006Y-123733465D02*
X152645863Y-123781084D01*
X152645863Y-123781084D02*
X152693482Y-123828703D01*
X152693482Y-123828703D02*
X152741101Y-123923941D01*
X152741101Y-123923941D02*
X152741101Y-124066798D01*
X152741101Y-124066798D02*
X152693482Y-124162036D01*
X152693482Y-124162036D02*
X152645863Y-124209656D01*
X152645863Y-124209656D02*
X152550625Y-124257275D01*
X152550625Y-124257275D02*
X152169673Y-124257275D01*
X152169673Y-124257275D02*
X152169673Y-123257275D01*
X152169673Y-123257275D02*
X152503006Y-123257275D01*
X152503006Y-123257275D02*
X152598244Y-123304894D01*
X152598244Y-123304894D02*
X152645863Y-123352513D01*
X152645863Y-123352513D02*
X152693482Y-123447751D01*
X152693482Y-123447751D02*
X152693482Y-123542989D01*
X152693482Y-123542989D02*
X152645863Y-123638227D01*
X152645863Y-123638227D02*
X152598244Y-123685846D01*
X152598244Y-123685846D02*
X152503006Y-123733465D01*
X152503006Y-123733465D02*
X152169673Y-123733465D01*
X153360149Y-123257275D02*
X153550625Y-123257275D01*
X153550625Y-123257275D02*
X153645863Y-123304894D01*
X153645863Y-123304894D02*
X153741101Y-123400132D01*
X153741101Y-123400132D02*
X153788720Y-123590608D01*
X153788720Y-123590608D02*
X153788720Y-123923941D01*
X153788720Y-123923941D02*
X153741101Y-124114417D01*
X153741101Y-124114417D02*
X153645863Y-124209656D01*
X153645863Y-124209656D02*
X153550625Y-124257275D01*
X153550625Y-124257275D02*
X153360149Y-124257275D01*
X153360149Y-124257275D02*
X153264911Y-124209656D01*
X153264911Y-124209656D02*
X153169673Y-124114417D01*
X153169673Y-124114417D02*
X153122054Y-123923941D01*
X153122054Y-123923941D02*
X153122054Y-123590608D01*
X153122054Y-123590608D02*
X153169673Y-123400132D01*
X153169673Y-123400132D02*
X153264911Y-123304894D01*
X153264911Y-123304894D02*
X153360149Y-123257275D01*
X154407768Y-123257275D02*
X154598244Y-123257275D01*
X154598244Y-123257275D02*
X154693482Y-123304894D01*
X154693482Y-123304894D02*
X154788720Y-123400132D01*
X154788720Y-123400132D02*
X154836339Y-123590608D01*
X154836339Y-123590608D02*
X154836339Y-123923941D01*
X154836339Y-123923941D02*
X154788720Y-124114417D01*
X154788720Y-124114417D02*
X154693482Y-124209656D01*
X154693482Y-124209656D02*
X154598244Y-124257275D01*
X154598244Y-124257275D02*
X154407768Y-124257275D01*
X154407768Y-124257275D02*
X154312530Y-124209656D01*
X154312530Y-124209656D02*
X154217292Y-124114417D01*
X154217292Y-124114417D02*
X154169673Y-123923941D01*
X154169673Y-123923941D02*
X154169673Y-123590608D01*
X154169673Y-123590608D02*
X154217292Y-123400132D01*
X154217292Y-123400132D02*
X154312530Y-123304894D01*
X154312530Y-123304894D02*
X154407768Y-123257275D01*
X155217292Y-124209656D02*
X155360149Y-124257275D01*
X155360149Y-124257275D02*
X155598244Y-124257275D01*
X155598244Y-124257275D02*
X155693482Y-124209656D01*
X155693482Y-124209656D02*
X155741101Y-124162036D01*
X155741101Y-124162036D02*
X155788720Y-124066798D01*
X155788720Y-124066798D02*
X155788720Y-123971560D01*
X155788720Y-123971560D02*
X155741101Y-123876322D01*
X155741101Y-123876322D02*
X155693482Y-123828703D01*
X155693482Y-123828703D02*
X155598244Y-123781084D01*
X155598244Y-123781084D02*
X155407768Y-123733465D01*
X155407768Y-123733465D02*
X155312530Y-123685846D01*
X155312530Y-123685846D02*
X155264911Y-123638227D01*
X155264911Y-123638227D02*
X155217292Y-123542989D01*
X155217292Y-123542989D02*
X155217292Y-123447751D01*
X155217292Y-123447751D02*
X155264911Y-123352513D01*
X155264911Y-123352513D02*
X155312530Y-123304894D01*
X155312530Y-123304894D02*
X155407768Y-123257275D01*
X155407768Y-123257275D02*
X155645863Y-123257275D01*
X155645863Y-123257275D02*
X155788720Y-123304894D01*
X156074435Y-123257275D02*
X156645863Y-123257275D01*
X156360149Y-124257275D02*
X156360149Y-123257275D01*
X152741101Y-125771980D02*
X152693482Y-125819600D01*
X152693482Y-125819600D02*
X152550625Y-125867219D01*
X152550625Y-125867219D02*
X152455387Y-125867219D01*
X152455387Y-125867219D02*
X152312530Y-125819600D01*
X152312530Y-125819600D02*
X152217292Y-125724361D01*
X152217292Y-125724361D02*
X152169673Y-125629123D01*
X152169673Y-125629123D02*
X152122054Y-125438647D01*
X152122054Y-125438647D02*
X152122054Y-125295790D01*
X152122054Y-125295790D02*
X152169673Y-125105314D01*
X152169673Y-125105314D02*
X152217292Y-125010076D01*
X152217292Y-125010076D02*
X152312530Y-124914838D01*
X152312530Y-124914838D02*
X152455387Y-124867219D01*
X152455387Y-124867219D02*
X152550625Y-124867219D01*
X152550625Y-124867219D02*
X152693482Y-124914838D01*
X152693482Y-124914838D02*
X152741101Y-124962457D01*
X153360149Y-124867219D02*
X153550625Y-124867219D01*
X153550625Y-124867219D02*
X153645863Y-124914838D01*
X153645863Y-124914838D02*
X153741101Y-125010076D01*
X153741101Y-125010076D02*
X153788720Y-125200552D01*
X153788720Y-125200552D02*
X153788720Y-125533885D01*
X153788720Y-125533885D02*
X153741101Y-125724361D01*
X153741101Y-125724361D02*
X153645863Y-125819600D01*
X153645863Y-125819600D02*
X153550625Y-125867219D01*
X153550625Y-125867219D02*
X153360149Y-125867219D01*
X153360149Y-125867219D02*
X153264911Y-125819600D01*
X153264911Y-125819600D02*
X153169673Y-125724361D01*
X153169673Y-125724361D02*
X153122054Y-125533885D01*
X153122054Y-125533885D02*
X153122054Y-125200552D01*
X153122054Y-125200552D02*
X153169673Y-125010076D01*
X153169673Y-125010076D02*
X153264911Y-124914838D01*
X153264911Y-124914838D02*
X153360149Y-124867219D01*
X154217292Y-125867219D02*
X154217292Y-124867219D01*
X154217292Y-124867219D02*
X154788720Y-125867219D01*
X154788720Y-125867219D02*
X154788720Y-124867219D01*
X155122054Y-124867219D02*
X155455387Y-125867219D01*
X155455387Y-125867219D02*
X155788720Y-124867219D01*
X156122054Y-125343409D02*
X156455387Y-125343409D01*
X156598244Y-125867219D02*
X156122054Y-125867219D01*
X156122054Y-125867219D02*
X156122054Y-124867219D01*
X156122054Y-124867219D02*
X156598244Y-124867219D01*
X157598244Y-125867219D02*
X157264911Y-125391028D01*
X157026816Y-125867219D02*
X157026816Y-124867219D01*
X157026816Y-124867219D02*
X157407768Y-124867219D01*
X157407768Y-124867219D02*
X157503006Y-124914838D01*
X157503006Y-124914838D02*
X157550625Y-124962457D01*
X157550625Y-124962457D02*
X157598244Y-125057695D01*
X157598244Y-125057695D02*
X157598244Y-125200552D01*
X157598244Y-125200552D02*
X157550625Y-125295790D01*
X157550625Y-125295790D02*
X157503006Y-125343409D01*
X157503006Y-125343409D02*
X157407768Y-125391028D01*
X157407768Y-125391028D02*
X157026816Y-125391028D01*
X157883959Y-124867219D02*
X158455387Y-124867219D01*
X158169673Y-125867219D02*
X158169673Y-124867219D01*
X158788721Y-125343409D02*
X159122054Y-125343409D01*
X159264911Y-125867219D02*
X158788721Y-125867219D01*
X158788721Y-125867219D02*
X158788721Y-124867219D01*
X158788721Y-124867219D02*
X159264911Y-124867219D01*
X160264911Y-125867219D02*
X159931578Y-125391028D01*
X159693483Y-125867219D02*
X159693483Y-124867219D01*
X159693483Y-124867219D02*
X160074435Y-124867219D01*
X160074435Y-124867219D02*
X160169673Y-124914838D01*
X160169673Y-124914838D02*
X160217292Y-124962457D01*
X160217292Y-124962457D02*
X160264911Y-125057695D01*
X160264911Y-125057695D02*
X160264911Y-125200552D01*
X160264911Y-125200552D02*
X160217292Y-125295790D01*
X160217292Y-125295790D02*
X160169673Y-125343409D01*
X160169673Y-125343409D02*
X160074435Y-125391028D01*
X160074435Y-125391028D02*
X159693483Y-125391028D01*
D11*
X120703884Y-127691466D02*
X121465789Y-127691466D01*
X121941979Y-128072419D02*
X121941979Y-127072419D01*
X122418169Y-128072419D02*
X122418169Y-127072419D01*
X122418169Y-127072419D02*
X122989597Y-128072419D01*
X122989597Y-128072419D02*
X122989597Y-127072419D01*
X162903884Y-124491466D02*
X163665789Y-124491466D01*
X164332455Y-123872419D02*
X164522931Y-123872419D01*
X164522931Y-123872419D02*
X164618169Y-123920038D01*
X164618169Y-123920038D02*
X164713407Y-124015276D01*
X164713407Y-124015276D02*
X164761026Y-124205752D01*
X164761026Y-124205752D02*
X164761026Y-124539085D01*
X164761026Y-124539085D02*
X164713407Y-124729561D01*
X164713407Y-124729561D02*
X164618169Y-124824800D01*
X164618169Y-124824800D02*
X164522931Y-124872419D01*
X164522931Y-124872419D02*
X164332455Y-124872419D01*
X164332455Y-124872419D02*
X164237217Y-124824800D01*
X164237217Y-124824800D02*
X164141979Y-124729561D01*
X164141979Y-124729561D02*
X164094360Y-124539085D01*
X164094360Y-124539085D02*
X164094360Y-124205752D01*
X164094360Y-124205752D02*
X164141979Y-124015276D01*
X164141979Y-124015276D02*
X164237217Y-123920038D01*
X164237217Y-123920038D02*
X164332455Y-123872419D01*
X165189598Y-123872419D02*
X165189598Y-124681942D01*
X165189598Y-124681942D02*
X165237217Y-124777180D01*
X165237217Y-124777180D02*
X165284836Y-124824800D01*
X165284836Y-124824800D02*
X165380074Y-124872419D01*
X165380074Y-124872419D02*
X165570550Y-124872419D01*
X165570550Y-124872419D02*
X165665788Y-124824800D01*
X165665788Y-124824800D02*
X165713407Y-124777180D01*
X165713407Y-124777180D02*
X165761026Y-124681942D01*
X165761026Y-124681942D02*
X165761026Y-123872419D01*
X166094360Y-123872419D02*
X166665788Y-123872419D01*
X166380074Y-124872419D02*
X166380074Y-123872419D01*
X162903884Y-103891466D02*
X163665789Y-103891466D01*
X163284836Y-104272419D02*
X163284836Y-103510514D01*
X164332455Y-103272419D02*
X164522931Y-103272419D01*
X164522931Y-103272419D02*
X164618169Y-103320038D01*
X164618169Y-103320038D02*
X164713407Y-103415276D01*
X164713407Y-103415276D02*
X164761026Y-103605752D01*
X164761026Y-103605752D02*
X164761026Y-103939085D01*
X164761026Y-103939085D02*
X164713407Y-104129561D01*
X164713407Y-104129561D02*
X164618169Y-104224800D01*
X164618169Y-104224800D02*
X164522931Y-104272419D01*
X164522931Y-104272419D02*
X164332455Y-104272419D01*
X164332455Y-104272419D02*
X164237217Y-104224800D01*
X164237217Y-104224800D02*
X164141979Y-104129561D01*
X164141979Y-104129561D02*
X164094360Y-103939085D01*
X164094360Y-103939085D02*
X164094360Y-103605752D01*
X164094360Y-103605752D02*
X164141979Y-103415276D01*
X164141979Y-103415276D02*
X164237217Y-103320038D01*
X164237217Y-103320038D02*
X164332455Y-103272419D01*
X165189598Y-103272419D02*
X165189598Y-104081942D01*
X165189598Y-104081942D02*
X165237217Y-104177180D01*
X165237217Y-104177180D02*
X165284836Y-104224800D01*
X165284836Y-104224800D02*
X165380074Y-104272419D01*
X165380074Y-104272419D02*
X165570550Y-104272419D01*
X165570550Y-104272419D02*
X165665788Y-104224800D01*
X165665788Y-104224800D02*
X165713407Y-104177180D01*
X165713407Y-104177180D02*
X165761026Y-104081942D01*
X165761026Y-104081942D02*
X165761026Y-103272419D01*
X166094360Y-103272419D02*
X166665788Y-103272419D01*
X166380074Y-104272419D02*
X166380074Y-103272419D01*
X120703884Y-100891466D02*
X121465789Y-100891466D01*
X121084836Y-101272419D02*
X121084836Y-100510514D01*
X121941979Y-101272419D02*
X121941979Y-100272419D01*
X122418169Y-101272419D02*
X122418169Y-100272419D01*
X122418169Y-100272419D02*
X122989597Y-101272419D01*
X122989597Y-101272419D02*
X122989597Y-100272419D01*
D12*
X159633333Y-104679580D02*
X159585714Y-104727200D01*
X159585714Y-104727200D02*
X159442857Y-104774819D01*
X159442857Y-104774819D02*
X159347619Y-104774819D01*
X159347619Y-104774819D02*
X159204762Y-104727200D01*
X159204762Y-104727200D02*
X159109524Y-104631961D01*
X159109524Y-104631961D02*
X159061905Y-104536723D01*
X159061905Y-104536723D02*
X159014286Y-104346247D01*
X159014286Y-104346247D02*
X159014286Y-104203390D01*
X159014286Y-104203390D02*
X159061905Y-104012914D01*
X159061905Y-104012914D02*
X159109524Y-103917676D01*
X159109524Y-103917676D02*
X159204762Y-103822438D01*
X159204762Y-103822438D02*
X159347619Y-103774819D01*
X159347619Y-103774819D02*
X159442857Y-103774819D01*
X159442857Y-103774819D02*
X159585714Y-103822438D01*
X159585714Y-103822438D02*
X159633333Y-103870057D01*
X159966667Y-103774819D02*
X160585714Y-103774819D01*
X160585714Y-103774819D02*
X160252381Y-104155771D01*
X160252381Y-104155771D02*
X160395238Y-104155771D01*
X160395238Y-104155771D02*
X160490476Y-104203390D01*
X160490476Y-104203390D02*
X160538095Y-104251009D01*
X160538095Y-104251009D02*
X160585714Y-104346247D01*
X160585714Y-104346247D02*
X160585714Y-104584342D01*
X160585714Y-104584342D02*
X160538095Y-104679580D01*
X160538095Y-104679580D02*
X160490476Y-104727200D01*
X160490476Y-104727200D02*
X160395238Y-104774819D01*
X160395238Y-104774819D02*
X160109524Y-104774819D01*
X160109524Y-104774819D02*
X160014286Y-104727200D01*
X160014286Y-104727200D02*
X159966667Y-104679580D01*
X142454819Y-110566666D02*
X142454819Y-111042856D01*
X142454819Y-111042856D02*
X141454819Y-111042856D01*
X142454819Y-109709523D02*
X142454819Y-110280951D01*
X142454819Y-109995237D02*
X141454819Y-109995237D01*
X141454819Y-109995237D02*
X141597676Y-110090475D01*
X141597676Y-110090475D02*
X141692914Y-110185713D01*
X141692914Y-110185713D02*
X141740533Y-110280951D01*
X123433333Y-103509580D02*
X123385714Y-103557200D01*
X123385714Y-103557200D02*
X123242857Y-103604819D01*
X123242857Y-103604819D02*
X123147619Y-103604819D01*
X123147619Y-103604819D02*
X123004762Y-103557200D01*
X123004762Y-103557200D02*
X122909524Y-103461961D01*
X122909524Y-103461961D02*
X122861905Y-103366723D01*
X122861905Y-103366723D02*
X122814286Y-103176247D01*
X122814286Y-103176247D02*
X122814286Y-103033390D01*
X122814286Y-103033390D02*
X122861905Y-102842914D01*
X122861905Y-102842914D02*
X122909524Y-102747676D01*
X122909524Y-102747676D02*
X123004762Y-102652438D01*
X123004762Y-102652438D02*
X123147619Y-102604819D01*
X123147619Y-102604819D02*
X123242857Y-102604819D01*
X123242857Y-102604819D02*
X123385714Y-102652438D01*
X123385714Y-102652438D02*
X123433333Y-102700057D01*
X124385714Y-103604819D02*
X123814286Y-103604819D01*
X124100000Y-103604819D02*
X124100000Y-102604819D01*
X124100000Y-102604819D02*
X124004762Y-102747676D01*
X124004762Y-102747676D02*
X123909524Y-102842914D01*
X123909524Y-102842914D02*
X123814286Y-102890533D01*
X139744761Y-121194819D02*
X139411428Y-120718628D01*
X139173333Y-121194819D02*
X139173333Y-120194819D01*
X139173333Y-120194819D02*
X139554285Y-120194819D01*
X139554285Y-120194819D02*
X139649523Y-120242438D01*
X139649523Y-120242438D02*
X139697142Y-120290057D01*
X139697142Y-120290057D02*
X139744761Y-120385295D01*
X139744761Y-120385295D02*
X139744761Y-120528152D01*
X139744761Y-120528152D02*
X139697142Y-120623390D01*
X139697142Y-120623390D02*
X139649523Y-120671009D01*
X139649523Y-120671009D02*
X139554285Y-120718628D01*
X139554285Y-120718628D02*
X139173333Y-120718628D01*
X140030476Y-120194819D02*
X140363809Y-121194819D01*
X140363809Y-121194819D02*
X140697142Y-120194819D01*
X141554285Y-121194819D02*
X140982857Y-121194819D01*
X141268571Y-121194819D02*
X141268571Y-120194819D01*
X141268571Y-120194819D02*
X141173333Y-120337676D01*
X141173333Y-120337676D02*
X141078095Y-120432914D01*
X141078095Y-120432914D02*
X140982857Y-120480533D01*
X167434819Y-101133333D02*
X168149104Y-101133333D01*
X168149104Y-101133333D02*
X168291961Y-101180952D01*
X168291961Y-101180952D02*
X168387200Y-101276190D01*
X168387200Y-101276190D02*
X168434819Y-101419047D01*
X168434819Y-101419047D02*
X168434819Y-101514285D01*
X167768152Y-100228571D02*
X168434819Y-100228571D01*
X167387200Y-100466666D02*
X168101485Y-100704761D01*
X168101485Y-100704761D02*
X168101485Y-100085714D01*
X165266666Y-129434819D02*
X165266666Y-130149104D01*
X165266666Y-130149104D02*
X165219047Y-130291961D01*
X165219047Y-130291961D02*
X165123809Y-130387200D01*
X165123809Y-130387200D02*
X164980952Y-130434819D01*
X164980952Y-130434819D02*
X164885714Y-130434819D01*
X165647619Y-129434819D02*
X166266666Y-129434819D01*
X166266666Y-129434819D02*
X165933333Y-129815771D01*
X165933333Y-129815771D02*
X166076190Y-129815771D01*
X166076190Y-129815771D02*
X166171428Y-129863390D01*
X166171428Y-129863390D02*
X166219047Y-129911009D01*
X166219047Y-129911009D02*
X166266666Y-130006247D01*
X166266666Y-130006247D02*
X166266666Y-130244342D01*
X166266666Y-130244342D02*
X166219047Y-130339580D01*
X166219047Y-130339580D02*
X166171428Y-130387200D01*
X166171428Y-130387200D02*
X166076190Y-130434819D01*
X166076190Y-130434819D02*
X165790476Y-130434819D01*
X165790476Y-130434819D02*
X165695238Y-130387200D01*
X165695238Y-130387200D02*
X165647619Y-130339580D01*
X115474819Y-127933333D02*
X116189104Y-127933333D01*
X116189104Y-127933333D02*
X116331961Y-127980952D01*
X116331961Y-127980952D02*
X116427200Y-128076190D01*
X116427200Y-128076190D02*
X116474819Y-128219047D01*
X116474819Y-128219047D02*
X116474819Y-128314285D01*
X115570057Y-127504761D02*
X115522438Y-127457142D01*
X115522438Y-127457142D02*
X115474819Y-127361904D01*
X115474819Y-127361904D02*
X115474819Y-127123809D01*
X115474819Y-127123809D02*
X115522438Y-127028571D01*
X115522438Y-127028571D02*
X115570057Y-126980952D01*
X115570057Y-126980952D02*
X115665295Y-126933333D01*
X115665295Y-126933333D02*
X115760533Y-126933333D01*
X115760533Y-126933333D02*
X115903390Y-126980952D01*
X115903390Y-126980952D02*
X116474819Y-127552380D01*
X116474819Y-127552380D02*
X116474819Y-126933333D01*
X118066666Y-97874819D02*
X118066666Y-98589104D01*
X118066666Y-98589104D02*
X118019047Y-98731961D01*
X118019047Y-98731961D02*
X117923809Y-98827200D01*
X117923809Y-98827200D02*
X117780952Y-98874819D01*
X117780952Y-98874819D02*
X117685714Y-98874819D01*
X119066666Y-98874819D02*
X118495238Y-98874819D01*
X118780952Y-98874819D02*
X118780952Y-97874819D01*
X118780952Y-97874819D02*
X118685714Y-98017676D01*
X118685714Y-98017676D02*
X118590476Y-98112914D01*
X118590476Y-98112914D02*
X118495238Y-98160533D01*
X123433333Y-114879580D02*
X123385714Y-114927200D01*
X123385714Y-114927200D02*
X123242857Y-114974819D01*
X123242857Y-114974819D02*
X123147619Y-114974819D01*
X123147619Y-114974819D02*
X123004762Y-114927200D01*
X123004762Y-114927200D02*
X122909524Y-114831961D01*
X122909524Y-114831961D02*
X122861905Y-114736723D01*
X122861905Y-114736723D02*
X122814286Y-114546247D01*
X122814286Y-114546247D02*
X122814286Y-114403390D01*
X122814286Y-114403390D02*
X122861905Y-114212914D01*
X122861905Y-114212914D02*
X122909524Y-114117676D01*
X122909524Y-114117676D02*
X123004762Y-114022438D01*
X123004762Y-114022438D02*
X123147619Y-113974819D01*
X123147619Y-113974819D02*
X123242857Y-113974819D01*
X123242857Y-113974819D02*
X123385714Y-114022438D01*
X123385714Y-114022438D02*
X123433333Y-114070057D01*
X123814286Y-114070057D02*
X123861905Y-114022438D01*
X123861905Y-114022438D02*
X123957143Y-113974819D01*
X123957143Y-113974819D02*
X124195238Y-113974819D01*
X124195238Y-113974819D02*
X124290476Y-114022438D01*
X124290476Y-114022438D02*
X124338095Y-114070057D01*
X124338095Y-114070057D02*
X124385714Y-114165295D01*
X124385714Y-114165295D02*
X124385714Y-114260533D01*
X124385714Y-114260533D02*
X124338095Y-114403390D01*
X124338095Y-114403390D02*
X123766667Y-114974819D01*
X123766667Y-114974819D02*
X124385714Y-114974819D01*
X161033333Y-112709580D02*
X160985714Y-112757200D01*
X160985714Y-112757200D02*
X160842857Y-112804819D01*
X160842857Y-112804819D02*
X160747619Y-112804819D01*
X160747619Y-112804819D02*
X160604762Y-112757200D01*
X160604762Y-112757200D02*
X160509524Y-112661961D01*
X160509524Y-112661961D02*
X160461905Y-112566723D01*
X160461905Y-112566723D02*
X160414286Y-112376247D01*
X160414286Y-112376247D02*
X160414286Y-112233390D01*
X160414286Y-112233390D02*
X160461905Y-112042914D01*
X160461905Y-112042914D02*
X160509524Y-111947676D01*
X160509524Y-111947676D02*
X160604762Y-111852438D01*
X160604762Y-111852438D02*
X160747619Y-111804819D01*
X160747619Y-111804819D02*
X160842857Y-111804819D01*
X160842857Y-111804819D02*
X160985714Y-111852438D01*
X160985714Y-111852438D02*
X161033333Y-111900057D01*
X161890476Y-112138152D02*
X161890476Y-112804819D01*
X161652381Y-111757200D02*
X161414286Y-112471485D01*
X161414286Y-112471485D02*
X162033333Y-112471485D01*
X124261905Y-122754819D02*
X124261905Y-121754819D01*
X124261905Y-121754819D02*
X124500000Y-121754819D01*
X124500000Y-121754819D02*
X124642857Y-121802438D01*
X124642857Y-121802438D02*
X124738095Y-121897676D01*
X124738095Y-121897676D02*
X124785714Y-121992914D01*
X124785714Y-121992914D02*
X124833333Y-122183390D01*
X124833333Y-122183390D02*
X124833333Y-122326247D01*
X124833333Y-122326247D02*
X124785714Y-122516723D01*
X124785714Y-122516723D02*
X124738095Y-122611961D01*
X124738095Y-122611961D02*
X124642857Y-122707200D01*
X124642857Y-122707200D02*
X124500000Y-122754819D01*
X124500000Y-122754819D02*
X124261905Y-122754819D01*
X125785714Y-122754819D02*
X125214286Y-122754819D01*
X125500000Y-122754819D02*
X125500000Y-121754819D01*
X125500000Y-121754819D02*
X125404762Y-121897676D01*
X125404762Y-121897676D02*
X125309524Y-121992914D01*
X125309524Y-121992914D02*
X125214286Y-122040533D01*
X133033333Y-123224819D02*
X132700000Y-122748628D01*
X132461905Y-123224819D02*
X132461905Y-122224819D01*
X132461905Y-122224819D02*
X132842857Y-122224819D01*
X132842857Y-122224819D02*
X132938095Y-122272438D01*
X132938095Y-122272438D02*
X132985714Y-122320057D01*
X132985714Y-122320057D02*
X133033333Y-122415295D01*
X133033333Y-122415295D02*
X133033333Y-122558152D01*
X133033333Y-122558152D02*
X132985714Y-122653390D01*
X132985714Y-122653390D02*
X132938095Y-122701009D01*
X132938095Y-122701009D02*
X132842857Y-122748628D01*
X132842857Y-122748628D02*
X132461905Y-122748628D01*
X133985714Y-123224819D02*
X133414286Y-123224819D01*
X133700000Y-123224819D02*
X133700000Y-122224819D01*
X133700000Y-122224819D02*
X133604762Y-122367676D01*
X133604762Y-122367676D02*
X133509524Y-122462914D01*
X133509524Y-122462914D02*
X133414286Y-122510533D01*
X127704819Y-116454523D02*
X128704819Y-116121190D01*
X128704819Y-116121190D02*
X127704819Y-115787857D01*
X128704819Y-114883095D02*
X128228628Y-115216428D01*
X128704819Y-115454523D02*
X127704819Y-115454523D01*
X127704819Y-115454523D02*
X127704819Y-115073571D01*
X127704819Y-115073571D02*
X127752438Y-114978333D01*
X127752438Y-114978333D02*
X127800057Y-114930714D01*
X127800057Y-114930714D02*
X127895295Y-114883095D01*
X127895295Y-114883095D02*
X128038152Y-114883095D01*
X128038152Y-114883095D02*
X128133390Y-114930714D01*
X128133390Y-114930714D02*
X128181009Y-114978333D01*
X128181009Y-114978333D02*
X128228628Y-115073571D01*
X128228628Y-115073571D02*
X128228628Y-115454523D01*
X128704819Y-113930714D02*
X128704819Y-114502142D01*
X128704819Y-114216428D02*
X127704819Y-114216428D01*
X127704819Y-114216428D02*
X127847676Y-114311666D01*
X127847676Y-114311666D02*
X127942914Y-114406904D01*
X127942914Y-114406904D02*
X127990533Y-114502142D01*
D13*
%TO.C,C3*%
X159538748Y-105265000D02*
X160061252Y-105265000D01*
X159538748Y-106735000D02*
X160061252Y-106735000D01*
%TO.C,L1*%
X143100000Y-104100000D02*
X146100000Y-104100000D01*
X143100000Y-116700000D02*
X143100000Y-104100000D01*
X146100000Y-116700000D02*
X143100000Y-116700000D01*
X152700000Y-104100000D02*
X155700000Y-104100000D01*
X155700000Y-104100000D02*
X155700000Y-116700000D01*
X155700000Y-116700000D02*
X152700000Y-116700000D01*
%TO.C,C1*%
X127720000Y-108400000D02*
G75*
G02*
X119480000Y-108400000I-4120000J0D01*
G01*
X119480000Y-108400000D02*
G75*
G02*
X127720000Y-108400000I4120000J0D01*
G01*
%TO.C,RV1*%
X138665000Y-122080000D02*
X148415000Y-122080000D01*
X138665000Y-127130000D02*
X138665000Y-122080000D01*
X148415000Y-122080000D02*
X148415000Y-127130000D01*
X148415000Y-127130000D02*
X138665000Y-127130000D01*
%TO.C,J4*%
X164220000Y-99420000D02*
X164220000Y-102180000D01*
X164330000Y-99420000D02*
X164220000Y-99420000D01*
X164330000Y-99420000D02*
X164330000Y-102180000D01*
X164330000Y-102180000D02*
X164220000Y-102180000D01*
X165600000Y-99420000D02*
X166980000Y-99420000D01*
X166980000Y-99420000D02*
X166980000Y-100800000D01*
%TO.C,J3*%
X164220000Y-126330000D02*
X164220000Y-126220000D01*
X166980000Y-126220000D02*
X164220000Y-126220000D01*
X166980000Y-126330000D02*
X164220000Y-126330000D01*
X166980000Y-126330000D02*
X166980000Y-126220000D01*
X166980000Y-127600000D02*
X166980000Y-128980000D01*
X166980000Y-128980000D02*
X165600000Y-128980000D01*
%TO.C,J2*%
X117020000Y-128980000D02*
X117020000Y-127600000D01*
X118400000Y-128980000D02*
X117020000Y-128980000D01*
X119670000Y-126220000D02*
X119780000Y-126220000D01*
X119670000Y-128980000D02*
X119670000Y-126220000D01*
X119670000Y-128980000D02*
X119780000Y-128980000D01*
X119780000Y-128980000D02*
X119780000Y-126220000D01*
%TO.C,J1*%
X117020000Y-99420000D02*
X118400000Y-99420000D01*
X117020000Y-100800000D02*
X117020000Y-99420000D01*
X117020000Y-102070000D02*
X117020000Y-102180000D01*
X117020000Y-102070000D02*
X119780000Y-102070000D01*
X117020000Y-102180000D02*
X119780000Y-102180000D01*
X119780000Y-102070000D02*
X119780000Y-102180000D01*
%TO.C,C2*%
X123338748Y-115465000D02*
X123861252Y-115465000D01*
X123338748Y-116935000D02*
X123861252Y-116935000D01*
%TO.C,C4*%
X165320000Y-117600000D02*
G75*
G02*
X157080000Y-117600000I-4120000J0D01*
G01*
X157080000Y-117600000D02*
G75*
G02*
X165320000Y-117600000I4120000J0D01*
G01*
%TO.C,D1*%
X121490000Y-123150000D02*
X121490000Y-126450000D01*
X121490000Y-123150000D02*
X127000000Y-123150000D01*
X121490000Y-126450000D02*
X127000000Y-126450000D01*
%TO.C,R1*%
X132472936Y-123690000D02*
X133927064Y-123690000D01*
X132472936Y-125510000D02*
X133927064Y-125510000D01*
D14*
%TO.C,VR1*%
X129420000Y-102650000D02*
X139780000Y-102650000D01*
X129420000Y-111800000D02*
X129420000Y-113405000D01*
X129420000Y-113405000D02*
X139780000Y-113405000D01*
X139780000Y-111800000D02*
X139780000Y-113405000D01*
D10*
X131200000Y-119000000D02*
G75*
G02*
X131000000Y-119000000I-100000J0D01*
G01*
X131000000Y-119000000D02*
G75*
G02*
X131200000Y-119000000I100000J0D01*
G01*
%TD*%
M02*
